<svg width="113" height="135" viewBox="0 0 113 135" fill="none" xmlns="http://www.w3.org/2000/svg">
<path fill-rule="evenodd" clip-rule="evenodd" d="M56.2266 1.96566C56.2266 0.861088 57.1224 -0.0380578 58.2263 0.00124109C66.7317 0.304042 75.0579 2.53504 82.5752 6.52551C83.5508 7.04341 83.877 8.26999 83.3247 9.22658L71.2757 30.0962C70.7234 31.0527 69.5029 31.3735 68.5095 30.8906C65.2884 29.3251 61.7973 28.3896 58.225 28.1349C57.1232 28.0564 56.2266 27.1683 56.2266 26.0638L56.2266 1.96566ZM29.0979 9.22657C28.5456 8.26999 28.8718 7.04344 29.8474 6.52554C33.0037 4.85009 36.3126 3.4795 39.7291 2.4324C40.7852 2.10874 41.8831 2.74542 42.169 3.81235L48.406 27.0893C48.6919 28.1563 48.0558 29.2461 47.0119 29.6071C45.9543 29.9729 44.9195 30.4015 43.9131 30.8907C42.9197 31.3735 41.6992 31.0527 41.1469 30.0962L29.0979 9.22657ZM94.5188 17.8395C95.2998 17.0585 96.569 17.0561 97.3218 17.8644C103.576 24.5802 108.097 32.7337 110.478 41.6174C113.031 51.1458 113.031 61.1783 110.478 70.7067C107.925 80.2351 102.908 88.9235 95.933 95.8988C95.156 96.6758 94.3577 97.4285 93.5394 98.1562L57.5693 134.126C56.7883 134.907 55.522 134.907 54.7409 134.126L18.1147 97.5C18.0846 97.4699 18.0557 97.4391 18.0279 97.4076C17.496 96.9154 16.9731 96.4124 16.4595 95.8988C9.48424 88.9235 4.46796 80.2351 1.91484 70.7067C-0.465532 61.823 -0.626591 52.5011 1.43166 43.5581C1.6794 42.4817 2.77976 41.8491 3.84669 42.135L27.1237 48.3721C28.1906 48.658 28.8163 49.7538 28.607 50.8384C27.8024 55.0083 27.9519 59.3155 29.0555 63.4344C30.3321 68.1986 32.8402 72.5428 36.3279 76.0304C36.3992 76.1018 36.471 76.1727 36.543 76.2433L54.7409 58.0454C55.522 57.2644 56.7883 57.2644 57.5693 58.0454L75.8078 76.2839C75.8939 76.2 75.9795 76.1155 76.0646 76.0304C79.5522 72.5428 82.0604 68.1986 83.3369 63.4344C84.6135 58.6702 84.6135 53.6539 83.3369 48.8897C82.2333 44.7709 80.2091 40.9659 77.4274 37.757C76.7038 36.9224 76.6978 35.6605 77.4788 34.8795L94.5188 17.8395ZM8.58988 26.3499C8.0039 27.2862 8.33473 28.5115 9.29131 29.0638L30.1609 41.1128C31.1175 41.6651 32.3348 41.3327 32.9537 40.4178C33.5807 39.491 34.2626 38.6024 34.9955 37.7569C35.7191 36.9222 35.7251 35.6604 34.944 34.8793L17.9041 17.8394C17.1231 17.0583 15.8539 17.0559 15.1011 17.8642C12.6659 20.4793 10.4856 23.3207 8.58988 26.3499Z" fill="white"/>
</svg>
