<svg width="512" height="512" viewBox="0 0 512 512" fill="none" xmlns="http://www.w3.org/2000/svg">
<path d="M-5.46392e-07 25C-2.44628e-07 11.1929 11.1929 2.44628e-07 25 5.46392e-07L487 1.06437e-05C500.807 1.09455e-05 512 11.1929 512 25L512 487C512 500.807 500.807 512 487 512L25 512C11.1929 512 -1.09455e-05 500.807 -1.06437e-05 487L-5.46392e-07 25Z" fill="url(#paint0_linear)"/>
<path fill-rule="evenodd" clip-rule="evenodd" d="M256.436 59.697C256.436 59.1447 256.884 58.6967 257.437 58.7C285.758 58.8715 313.561 66.3212 338.174 80.3336C338.654 80.6068 338.818 81.2188 338.542 81.6971L298.239 151.504C297.963 151.982 297.352 152.145 296.87 151.875C284.817 145.109 271.258 141.476 257.436 141.309C256.884 141.302 256.436 140.855 256.436 140.303L256.436 59.697ZM174.241 81.6971C173.965 81.2188 174.128 80.6069 174.608 80.3337C186.574 73.5217 199.344 68.2322 212.621 64.5882C213.154 64.442 213.702 64.7589 213.845 65.2924L234.708 143.151C234.851 143.685 234.534 144.233 234.002 144.382C227.697 146.154 221.624 148.669 215.913 151.875C215.431 152.145 214.82 151.982 214.544 151.504L174.241 81.6971ZM372.462 107.794C372.853 107.403 373.486 107.403 373.875 107.796C394.014 128.181 408.51 153.459 415.929 181.149C423.435 209.161 423.435 238.656 415.929 266.668C408.423 294.681 393.676 320.224 373.169 340.731C370.884 343.016 368.535 345.23 366.128 347.371L256.933 456.566C256.543 456.956 255.909 456.956 255.519 456.566L143.901 344.948C142.418 343.571 140.96 342.165 139.525 340.731C119.019 320.224 104.272 294.681 96.7657 266.668C89.3461 238.978 89.2607 209.839 96.5097 182.116C96.6494 181.582 97.1981 181.265 97.7316 181.408L175.591 202.27C176.124 202.413 176.44 202.961 176.304 203.496C172.806 217.213 172.89 231.604 176.557 245.289C180.309 259.295 187.683 272.066 197.936 282.32C198.146 282.529 198.357 282.738 198.569 282.945L255.519 225.995C255.909 225.605 256.543 225.605 256.933 225.995L314.003 283.065C314.256 282.818 314.508 282.57 314.758 282.32C325.012 272.066 332.385 259.295 336.138 245.289C339.891 231.282 339.891 216.535 336.138 202.529C332.472 188.845 325.349 176.339 315.461 166.209C315.076 165.814 315.075 165.181 315.465 164.791L372.462 107.794ZM113.862 140.438C113.583 140.915 113.747 141.526 114.225 141.803L184.032 182.105C184.51 182.382 185.121 182.217 185.403 181.742C188.746 176.11 192.748 170.896 197.322 166.209C197.708 165.813 197.709 165.181 197.318 164.79L140.321 107.793C139.931 107.403 139.298 107.403 138.909 107.795C129.233 117.59 120.818 128.556 113.862 140.438Z" fill="white"/>
<defs>
<linearGradient id="paint0_linear" x1="256" y1="-3.76498e-06" x2="-58.0707" y2="756.921" gradientUnits="userSpaceOnUse">
<stop stop-color="#FF6B00"/>
<stop offset="1" stop-color="#C5005E"/>
</linearGradient>
</defs>
</svg>
