<svg width="561" height="135" viewBox="0 0 561 135" fill="none" xmlns="http://www.w3.org/2000/svg">
<path d="M176.043 77.7908C179.266 79.5486 182.732 80.4275 186.443 80.4275C194.158 80.4275 198.016 75.0076 198.016 64.1677C198.016 54.9555 193.751 50.3494 185.223 50.3494C181.544 50.3494 178.484 50.5772 176.043 51.033V77.7908ZM163.104 41.9998C169.907 40.6 177.101 39.9001 184.686 39.9001C202.101 39.9001 210.809 48.0219 210.809 64.2654C210.809 82.2016 202.703 91.1697 186.492 91.1697C183.042 91.1697 179.559 90.3559 176.043 88.7283V109.724H163.104V41.9998ZM214.52 39.9001H228.24L241.18 76.8142L253.826 39.9001H267.303L246.014 92.6833C242.238 101.993 236.199 108.618 227.898 112.556L221.648 103.719C227.378 101.212 231.544 97.1267 234.148 91.4626L214.52 39.9001ZM273.455 91.1697V39.9001H283.465L285.076 46.4431C289.568 42.0811 294.321 39.9001 299.334 39.9001V50.3494C294.516 50.3494 290.203 52.3513 286.395 56.3552V91.1697H273.455ZM317.156 65.3396C317.156 76.0492 321.307 81.4041 329.607 81.4041C337.908 81.4041 342.059 76.0492 342.059 65.3396C342.059 54.8904 337.908 49.6658 329.607 49.6658C321.307 49.6658 317.156 54.8904 317.156 65.3396ZM304.217 65.5349C304.217 48.3474 312.68 39.7537 329.607 39.7537C346.535 39.7537 354.998 48.3474 354.998 65.5349C354.998 82.6899 346.535 91.2673 329.607 91.2673C312.745 91.2673 304.282 82.6899 304.217 65.5349ZM364.764 91.1697V39.9001H374.773L376.287 47.322C380.877 42.3741 386.395 39.9001 392.84 39.9001C399.285 39.9001 403.696 42.2439 406.072 46.9314C411.313 42.2439 416.798 39.9001 422.527 39.9001C434.311 39.9001 440.203 46.3943 440.203 59.3826V91.1697H427.264V58.8943C427.264 53.1977 424.692 50.3494 419.549 50.3494C415.708 50.3494 412.013 52.0746 408.465 55.5251V91.1697H395.525V59.0408C395.525 53.2465 393.149 50.3494 388.396 50.3494C384.62 50.3494 381.056 52.0746 377.703 55.5251V91.1697H364.764ZM450.018 75.2029C450.018 65.0141 457.439 59.9197 472.283 59.9197C475.766 59.9197 479.249 60.2452 482.732 60.8962V57.0388C482.732 52.449 479.428 50.1541 472.82 50.1541C467.221 50.1541 461.004 50.9679 454.168 52.5955V42.3416C461.004 40.7139 467.221 39.9001 472.82 39.9001C488.055 39.9001 495.672 45.5317 495.672 56.7947V91.1697H488.152L483.562 86.5798C479.103 89.6397 474.188 91.1697 468.816 91.1697C456.284 91.1697 450.018 85.8474 450.018 75.2029ZM482.732 69.6853C479.477 69.0343 475.994 68.7087 472.283 68.7087C466.066 68.7087 462.957 70.8246 462.957 75.0564C462.957 79.6137 465.561 81.8923 470.77 81.8923C475.066 81.8923 479.054 80.5577 482.732 77.8884V69.6853ZM507.928 91.1697V39.9001H517.938L519.549 47.4197C524.464 42.4067 530.063 39.9001 536.346 39.9001C548.488 39.9001 554.559 46.2153 554.559 58.8455V91.1697H541.619V58.8455C541.619 53.1814 538.803 50.3494 533.172 50.3494C528.973 50.3494 524.871 52.0258 520.867 55.3787V91.1697H507.928Z" fill="#3B3B3B"/>
<path fill-rule="evenodd" clip-rule="evenodd" d="M56.2269 1.96566C56.2269 0.861088 57.1227 -0.0380578 58.2265 0.00124109C66.7319 0.304042 75.0581 2.53504 82.5754 6.52551C83.5511 7.04341 83.8773 8.26999 83.325 9.22658L71.2759 30.0962C70.7236 31.0527 69.5032 31.3735 68.5097 30.8906C65.2886 29.3251 61.7976 28.3896 58.2252 28.1349C57.1235 28.0564 56.2269 27.1683 56.2269 26.0638L56.2269 1.96566ZM29.0979 9.22657C28.5456 8.26999 28.8717 7.04344 29.8474 6.52554C33.0037 4.85009 36.3126 3.4795 39.7291 2.4324C40.7852 2.10874 41.8831 2.74542 42.169 3.81235L48.406 27.0893C48.6919 28.1563 48.0558 29.2461 47.0119 29.6071C45.9543 29.9729 44.9195 30.4015 43.9131 30.8907C42.9197 31.3735 41.6992 31.0527 41.1469 30.0962L29.0979 9.22657ZM94.5188 17.8395C95.2998 17.0585 96.569 17.0561 97.3218 17.8644C103.576 24.5802 108.097 32.7337 110.478 41.6174C113.031 51.1458 113.031 61.1783 110.478 70.7067C107.925 80.2351 102.908 88.9235 95.933 95.8988C95.1559 96.6758 94.3577 97.4285 93.5393 98.1562L57.5693 134.126C56.7883 134.907 55.522 134.907 54.7409 134.126L18.1147 97.5C18.0846 97.4699 18.0557 97.4391 18.0279 97.4076C17.496 96.9154 16.9731 96.4124 16.4595 95.8988C9.48424 88.9235 4.46796 80.2351 1.91484 70.7067C-0.465532 61.823 -0.626591 52.5011 1.43166 43.5581C1.6794 42.4817 2.77976 41.8491 3.84669 42.135L27.1237 48.3721C28.1906 48.658 28.8163 49.7538 28.607 50.8384C27.8024 55.0083 27.9519 59.3155 29.0555 63.4344C30.3321 68.1986 32.8402 72.5428 36.3279 76.0304C36.3992 76.1018 36.471 76.1727 36.543 76.2433L54.7409 58.0454C55.522 57.2644 56.7883 57.2644 57.5693 58.0454L75.8078 76.2839C75.8939 76.2 75.9795 76.1155 76.0646 76.0304C79.5522 72.5428 82.0604 68.1986 83.3369 63.4344C84.6135 58.6702 84.6135 53.6539 83.3369 48.8897C82.2333 44.7709 80.2091 40.9659 77.4274 37.757C76.7038 36.9224 76.6978 35.6605 77.4788 34.8795L94.5188 17.8395ZM8.59012 26.3499C8.00414 27.2862 8.33497 28.5115 9.29155 29.0638L30.1611 41.1128C31.1177 41.6651 32.335 41.3327 32.954 40.4178C33.581 39.491 34.2628 38.6024 34.9958 37.7569C35.7193 36.9222 35.7253 35.6604 34.9443 34.8793L17.9043 17.8394C17.1233 17.0583 15.8541 17.0559 15.1014 17.8642C12.6661 20.4793 10.4858 23.3207 8.59012 26.3499Z" fill="url(#paint0_linear)"/>
<defs>
<linearGradient id="paint0_linear" x1="56.1962" y1="0" x2="56.1962" y2="134.712" gradientUnits="userSpaceOnUse">
<stop offset="0.380208" stop-color="#FF6B00"/>
<stop offset="1" stop-color="#C5005E"/>
</linearGradient>
</defs>
</svg>
