<svg width="1373" height="335" viewBox="0 0 1373 335" fill="none" xmlns="http://www.w3.org/2000/svg">
<path d="M435.569 192.542C443.543 196.891 452.12 199.066 461.302 199.066C480.39 199.066 489.934 185.656 489.934 158.836C489.934 136.042 479.384 124.646 458.282 124.646C449.181 124.646 441.61 125.21 435.569 126.337V192.542ZM403.554 103.987C420.387 100.524 438.187 98.7922 456.953 98.7922C500.042 98.7922 521.587 118.887 521.587 159.077C521.587 203.455 501.532 225.644 461.423 225.644C452.886 225.644 444.268 223.631 435.569 219.604V271.553H403.554V103.987Z" fill="#3B3B3B"/>
<path d="M530.769 98.7922H564.717L596.732 190.126L628.022 98.7922H661.366L608.692 229.389C599.349 252.424 584.409 268.814 563.871 278.56L548.407 256.693C562.582 250.491 572.892 240.383 579.335 226.369L530.769 98.7922Z" fill="#3B3B3B"/>
<path d="M676.588 225.644V98.7922H701.354L705.341 114.981C716.456 104.188 728.215 98.7922 740.618 98.7922V124.646C728.698 124.646 718.026 129.599 708.603 139.506V225.644H676.588Z" fill="#3B3B3B"/>
<path d="M784.714 161.735C784.714 188.233 794.983 201.482 815.521 201.482C836.059 201.482 846.328 188.233 846.328 161.735C846.328 135.881 836.059 122.955 815.521 122.955C794.983 122.955 784.714 135.881 784.714 161.735ZM752.699 162.218C752.699 119.693 773.64 98.4298 815.521 98.4298C857.402 98.4298 878.343 119.693 878.343 162.218C878.343 204.663 857.402 225.886 815.521 225.886C773.801 225.886 752.86 204.663 752.699 162.218Z" fill="#3B3B3B"/>
<path d="M902.505 225.644V98.7922H927.272L931.017 117.156C942.373 104.913 956.025 98.7922 971.972 98.7922C987.919 98.7922 998.832 104.591 1004.71 116.189C1017.68 104.591 1031.25 98.7922 1045.43 98.7922C1074.58 98.7922 1089.16 114.86 1089.16 146.996V225.644H1057.14V145.788C1057.14 131.693 1050.78 124.646 1038.06 124.646C1028.55 124.646 1019.41 128.915 1010.63 137.452V225.644H978.617V146.15C978.617 131.814 972.737 124.646 960.978 124.646C951.635 124.646 942.816 128.915 934.52 137.452V225.644H902.505Z" fill="#3B3B3B"/>
<path d="M1113.44 186.139C1113.44 160.93 1131.81 148.325 1168.53 148.325C1177.15 148.325 1185.77 149.13 1194.39 150.741V141.197C1194.39 129.841 1186.21 124.163 1169.86 124.163C1156.01 124.163 1140.62 126.176 1123.71 130.203V104.833C1140.62 100.806 1156.01 98.7922 1169.86 98.7922C1207.55 98.7922 1226.4 112.726 1226.4 140.593V225.644H1207.8L1196.44 214.288C1185.41 221.859 1173.24 225.644 1159.95 225.644C1128.95 225.644 1113.44 212.476 1113.44 186.139ZM1194.39 172.487C1186.33 170.876 1177.71 170.071 1168.53 170.071C1153.15 170.071 1145.46 175.306 1145.46 185.776C1145.46 197.052 1151.9 202.69 1164.79 202.69C1175.42 202.69 1185.28 199.388 1194.39 192.784V172.487Z" fill="#3B3B3B"/>
<path d="M1256.72 225.644V98.7922H1281.49L1285.48 117.397C1297.64 104.994 1311.49 98.7922 1327.04 98.7922C1357.08 98.7922 1372.1 114.417 1372.1 145.667V225.644H1340.08V145.667C1340.08 131.653 1333.12 124.646 1319.18 124.646C1308.79 124.646 1298.65 128.794 1288.74 137.089V225.644H1256.72Z" fill="#3B3B3B"/>
<path fill-rule="evenodd" clip-rule="evenodd" d="M139.117 1.98582C139.117 0.881253 140.013 -0.0156778 141.118 0.000207808C164.166 0.331725 186.772 6.38894 206.899 17.6263C207.863 18.1648 208.191 19.3894 207.638 20.3459L174.878 77.0887C174.326 78.0453 173.104 78.3703 172.132 77.8457C162.584 72.6936 151.962 69.8475 141.117 69.5355C140.013 69.5037 139.117 68.6113 139.117 67.5067L139.117 1.98582ZM70.5205 20.3459C69.9682 19.3893 70.2953 18.1648 71.2597 17.6264C80.7004 12.3553 90.7238 8.2035 101.127 5.25507C102.189 4.95387 103.286 5.58847 103.572 6.6554L120.53 69.9437C120.816 71.0106 120.182 72.1045 119.124 72.4209C114.585 73.7782 110.196 75.596 106.027 77.8458C105.055 78.3703 103.833 78.0453 103.281 77.0887L70.5205 20.3459ZM235.945 42.1248C236.726 41.3438 237.993 41.3429 238.763 42.1351C255.291 59.1455 267.201 80.1104 273.346 103.041C279.663 126.617 279.663 151.439 273.346 175.015C267.029 198.59 254.617 220.087 237.359 237.345C235.437 239.268 233.461 241.13 231.437 242.931L140.354 334.013C139.573 334.794 138.307 334.794 137.526 334.013L44.4167 240.904C43.1656 239.742 41.9346 238.556 40.7244 237.345C23.4661 220.087 11.0547 198.59 4.73773 175.015C-1.40661 152.084 -1.57452 127.972 4.23397 104.977C4.50448 103.906 5.60266 103.273 6.66959 103.559L69.9579 120.517C71.0248 120.803 71.655 121.899 71.3999 122.974C68.7407 134.178 68.904 145.878 71.8897 157.021C75.0482 168.809 81.2539 179.558 89.8831 188.187C90.0596 188.363 90.2371 188.539 90.4155 188.713L137.526 141.603C138.307 140.822 139.573 140.822 140.354 141.603L187.565 188.814C187.778 188.606 187.99 188.397 188.2 188.187C196.83 179.558 203.035 168.809 206.194 157.021C209.352 145.234 209.352 132.822 206.194 121.035C203.208 109.892 197.499 99.6771 189.594 91.3038C188.836 90.5006 188.834 89.2361 189.615 88.4551L235.945 42.1248ZM19.7162 67.7819C19.1502 68.7304 19.4792 69.9544 20.4358 70.5067L77.1785 103.267C78.1351 103.819 79.3558 103.49 79.9353 102.55C82.4212 98.5166 85.3128 94.7482 88.565 91.3033C89.3233 90.5001 89.3256 89.2357 88.5445 88.4547L42.2143 42.1244C41.4332 41.3434 40.1658 41.3423 39.396 42.1345C31.8612 49.8894 25.2566 58.4966 19.7162 67.7819Z" fill="url(#paint0_linear)"/>
<defs>
<linearGradient id="paint0_linear" x1="139.042" y1="0" x2="139.042" y2="334.599" gradientUnits="userSpaceOnUse">
<stop offset="0.380208" stop-color="#FF6B00"/>
<stop offset="1" stop-color="#C5005E"/>
</linearGradient>
</defs>
</svg>
