<svg width="561" height="136" viewBox="0 0 561 136" fill="none" xmlns="http://www.w3.org/2000/svg">
<path d="M176.043 78.6211C179.266 80.3789 182.732 81.2578 186.443 81.2578C194.158 81.2578 198.016 75.8379 198.016 64.998C198.016 55.7858 193.751 51.1797 185.223 51.1797C181.544 51.1797 178.484 51.4076 176.043 51.8633V78.6211ZM163.104 42.8301C169.907 41.4303 177.101 40.7305 184.686 40.7305C202.101 40.7305 210.809 48.8522 210.809 65.0957C210.809 83.0319 202.703 92 186.492 92C183.042 92 179.559 91.1862 176.043 89.5586V110.555H163.104V42.8301ZM214.52 40.7305H228.24L241.18 77.6445L253.826 40.7305H267.303L246.014 93.5137C242.238 102.824 236.199 109.448 227.898 113.387L221.648 104.549C227.378 102.042 231.544 97.957 234.148 92.293L214.52 40.7305ZM273.455 92V40.7305H283.465L285.076 47.2734C289.568 42.9115 294.321 40.7305 299.334 40.7305V51.1797C294.516 51.1797 290.203 53.1816 286.395 57.1855V92H273.455ZM317.156 66.1699C317.156 76.8796 321.307 82.2344 329.607 82.2344C337.908 82.2344 342.059 76.8796 342.059 66.1699C342.059 55.7207 337.908 50.4961 329.607 50.4961C321.307 50.4961 317.156 55.7207 317.156 66.1699ZM304.217 66.3652C304.217 49.1777 312.68 40.584 329.607 40.584C346.535 40.584 354.998 49.1777 354.998 66.3652C354.998 83.5202 346.535 92.0977 329.607 92.0977C312.745 92.0977 304.282 83.5202 304.217 66.3652ZM364.764 92V40.7305H374.773L376.287 48.1523C380.877 43.2044 386.395 40.7305 392.84 40.7305C399.285 40.7305 403.696 43.0742 406.072 47.7617C411.313 43.0742 416.798 40.7305 422.527 40.7305C434.311 40.7305 440.203 47.2246 440.203 60.2129V92H427.264V59.7246C427.264 54.028 424.692 51.1797 419.549 51.1797C415.708 51.1797 412.013 52.9049 408.465 56.3555V92H395.525V59.8711C395.525 54.0768 393.149 51.1797 388.396 51.1797C384.62 51.1797 381.056 52.9049 377.703 56.3555V92H364.764ZM450.018 76.0332C450.018 65.8444 457.439 60.75 472.283 60.75C475.766 60.75 479.249 61.0755 482.732 61.7266V57.8691C482.732 53.2793 479.428 50.9844 472.82 50.9844C467.221 50.9844 461.004 51.7982 454.168 53.4258V43.1719C461.004 41.5443 467.221 40.7305 472.82 40.7305C488.055 40.7305 495.672 46.362 495.672 57.625V92H488.152L483.562 87.4102C479.103 90.4701 474.188 92 468.816 92C456.284 92 450.018 86.6777 450.018 76.0332ZM482.732 70.5156C479.477 69.8646 475.994 69.5391 472.283 69.5391C466.066 69.5391 462.957 71.6549 462.957 75.8867C462.957 80.444 465.561 82.7227 470.77 82.7227C475.066 82.7227 479.054 81.388 482.732 78.7188V70.5156ZM507.928 92V40.7305H517.938L519.549 48.25C524.464 43.237 530.063 40.7305 536.346 40.7305C548.488 40.7305 554.559 47.0456 554.559 59.6758V92H541.619V59.6758C541.619 54.0117 538.803 51.1797 533.172 51.1797C528.973 51.1797 524.871 52.8561 520.867 56.209V92H507.928Z" fill="#3B3B3B"/>
<path fill-rule="evenodd" clip-rule="evenodd" d="M56.2269 2.79596C56.2269 1.69139 57.1227 0.792249 58.2265 0.831548C66.7319 1.13435 75.0581 3.36535 82.5754 7.35582C83.5511 7.87372 83.8773 9.1003 83.325 10.0569L71.2759 30.9265C70.7236 31.8831 69.5032 32.2038 68.5097 31.7209C65.2886 30.1554 61.7976 29.2199 58.2252 28.9652C57.1235 28.8867 56.2269 27.9987 56.2269 26.8941L56.2269 2.79596ZM29.0979 10.0569C28.5456 9.10029 28.8717 7.87375 29.8474 7.35585C33.0037 5.6804 36.3126 4.3098 39.7291 3.26271C40.7852 2.93904 41.8831 3.57572 42.169 4.64265L48.406 27.9197C48.6919 28.9866 48.0558 30.0764 47.0119 30.4374C45.9543 30.8032 44.9195 31.2318 43.9131 31.721C42.9197 32.2038 41.6992 31.883 41.1469 30.9265L29.0979 10.0569ZM94.5188 18.6698C95.2998 17.8888 96.569 17.8864 97.3218 18.6947C103.576 25.4105 108.097 33.564 110.478 42.4477C113.031 51.9761 113.031 62.0086 110.478 71.537C107.925 81.0654 102.908 89.7538 95.933 96.7291C95.156 97.5061 94.3577 98.2588 93.5394 98.9865L57.5693 134.957C56.7883 135.738 55.522 135.738 54.7409 134.957L18.1147 98.3303C18.0846 98.3002 18.0557 98.2694 18.0279 98.2379C17.496 97.7457 16.9731 97.2427 16.4595 96.7291C9.48424 89.7538 4.46796 81.0654 1.91484 71.537C-0.465532 62.6533 -0.626591 53.3314 1.43166 44.3884C1.6794 43.312 2.77976 42.6794 3.84669 42.9653L27.1237 49.2024C28.1906 49.4883 28.8163 50.5842 28.607 51.6687C27.8024 55.8386 27.9519 60.1458 29.0555 64.2647C30.3321 69.0289 32.8402 73.3731 36.3279 76.8607C36.3992 76.9321 36.471 77.003 36.543 77.0736L54.7409 58.8757C55.522 58.0947 56.7883 58.0947 57.5693 58.8757L75.8078 77.1142C75.8939 77.0303 75.9795 76.9458 76.0646 76.8607C79.5522 73.3731 82.0604 69.0289 83.3369 64.2647C84.6135 59.5005 84.6135 54.4842 83.3369 49.72C82.2333 45.6012 80.2091 41.7963 77.4274 38.5874C76.7038 37.7527 76.6978 36.4908 77.4788 35.7098L94.5188 18.6698ZM8.59012 27.1802C8.00414 28.1165 8.33497 29.3418 9.29155 29.8941L30.1611 41.9431C31.1177 42.4954 32.335 42.163 32.954 41.2481C33.581 40.3213 34.2628 39.4327 34.9958 38.5872C35.7193 37.7525 35.7253 36.4907 34.9443 35.7096L17.9043 18.6697C17.1233 17.8886 15.8541 17.8862 15.1014 18.6945C12.6661 21.3096 10.4858 24.1511 8.59012 27.1802Z" fill="#3B3B3B"/>
</svg>
