<svg width="1142" height="331" viewBox="0 0 1142 331" fill="none" xmlns="http://www.w3.org/2000/svg">
<path d="M430.86 190.46C438.747 194.762 447.232 196.913 456.314 196.913C475.196 196.913 484.637 183.648 484.637 157.118C484.637 134.571 474.2 123.298 453.327 123.298C444.324 123.298 436.835 123.856 430.86 124.971V190.46ZM399.191 102.863C415.842 99.4368 433.449 97.7239 452.012 97.7239C494.636 97.7239 515.948 117.602 515.948 157.357C515.948 201.255 496.11 223.204 456.434 223.204C447.989 223.204 439.464 221.213 430.86 217.229V268.616H399.191V102.863Z" fill="#3B3B3B"/>
<path d="M533.993 184.126C533.993 159.189 552.158 146.721 588.487 146.721C597.012 146.721 605.537 147.518 614.061 149.111V139.67C614.061 128.437 605.975 122.82 589.802 122.82C576.099 122.82 560.882 124.812 544.151 128.795V103.699C560.882 99.7156 576.099 97.7239 589.802 97.7239C627.087 97.7239 645.73 111.507 645.73 139.073V223.204H627.326L616.093 211.971C605.178 219.46 593.148 223.204 580.002 223.204C549.329 223.204 533.993 210.178 533.993 184.126ZM614.061 170.622C606.094 169.029 597.57 168.232 588.487 168.232C573.27 168.232 565.662 173.411 565.662 183.768C565.662 194.921 572.035 200.498 584.783 200.498C595.299 200.498 605.059 197.232 614.061 190.699V170.622Z" fill="#3B3B3B"/>
<path d="M675.726 223.204V97.7239H700.225L704.168 116.128C716.199 103.858 729.902 97.7239 745.278 97.7239C774.995 97.7239 789.854 113.18 789.854 144.092V223.204H758.185V144.092C758.185 130.229 751.293 123.298 737.51 123.298C727.233 123.298 717.194 127.401 707.395 135.607V223.204H675.726Z" fill="#3B3B3B"/>
<path d="M819.849 217.229V190.938C833.792 196.515 849.885 199.303 868.13 199.303C881.753 199.303 888.565 194.921 888.565 186.158C888.565 177.792 883.984 173.61 874.822 173.61H852.116C826.621 173.61 813.874 161.062 813.874 135.966C813.874 109.674 832.477 96.5288 869.683 96.5288C885.458 96.5288 900.316 98.9189 914.259 103.699V129.99C900.316 124.413 885.179 121.625 868.847 121.625C851.718 121.625 843.153 126.007 843.153 134.77C843.153 143.136 848.132 147.319 858.091 147.319H878.407C906.292 147.319 920.234 159.867 920.234 184.963C920.234 211.254 902.467 224.399 866.935 224.399C849.487 224.399 833.792 222.009 819.849 217.229Z" fill="#3B3B3B"/>
<path d="M936.487 184.126C936.487 159.189 954.651 146.721 990.981 146.721C999.506 146.721 1008.03 147.518 1016.56 149.111V139.67C1016.56 128.437 1008.47 122.82 992.296 122.82C978.592 122.82 963.375 124.812 946.645 128.795V103.699C963.375 99.7156 978.592 97.7239 992.296 97.7239C1029.58 97.7239 1048.22 111.507 1048.22 139.073V223.204H1029.82L1018.59 211.971C1007.67 219.46 995.642 223.204 982.496 223.204C951.823 223.204 936.487 210.178 936.487 184.126ZM1016.56 170.622C1008.59 169.029 1000.06 168.232 990.981 168.232C975.764 168.232 968.155 173.411 968.155 183.768C968.155 194.921 974.529 200.498 987.276 200.498C997.793 200.498 1007.55 197.232 1016.56 190.699V170.622Z" fill="#3B3B3B"/>
<path d="M1078.22 223.204V97.7239H1102.72L1106.66 113.738C1117.66 103.062 1129.29 97.7239 1141.56 97.7239V123.298C1129.77 123.298 1119.21 128.198 1109.89 137.997V223.204H1078.22Z" fill="#3B3B3B"/>
<path fill-rule="evenodd" clip-rule="evenodd" d="M137.613 1.98567C137.613 0.881103 138.509 -0.0158468 139.613 0.000212333C162.398 0.331515 184.745 6.31928 204.643 17.4249C205.608 17.9632 205.935 19.1878 205.382 20.1444L172.998 76.2362C172.446 77.1928 171.224 77.5177 170.251 76.9935C160.818 71.907 150.326 69.0956 139.613 68.784C138.509 68.7519 137.613 67.8595 137.613 66.7549L137.613 1.98567ZM69.7688 20.1444C69.2165 19.1878 69.5436 17.9633 70.5081 17.4249C79.8349 12.2194 89.7365 8.11807 100.012 5.20385C101.075 4.90248 102.172 5.53709 102.458 6.60403L119.222 69.1663C119.507 70.2332 118.873 71.327 117.815 71.6438C113.339 72.9837 109.012 74.7762 104.9 76.9936C103.928 77.5178 102.706 77.1928 102.153 76.2362L69.7688 20.1444ZM233.379 41.6844C234.16 40.9034 235.427 40.9024 236.197 41.6947C252.538 58.5185 264.314 79.2509 270.39 101.927C276.639 125.247 276.639 149.802 270.39 173.122C264.142 196.443 251.865 217.707 234.793 234.779C232.891 236.681 230.937 238.523 228.934 240.304L138.852 330.386C138.071 331.167 136.805 331.167 136.024 330.386L43.9351 238.298C42.698 237.149 41.4807 235.976 40.2841 234.779C23.2124 217.707 10.9352 196.443 4.68651 173.122C-1.38953 150.446 -1.5574 126.603 4.1829 103.863C4.45324 102.792 5.55143 102.159 6.61837 102.445L69.1806 119.208C70.2476 119.494 70.8777 120.59 70.623 121.665C67.9977 132.741 68.1609 144.308 71.1125 155.323C74.2368 166.984 80.3754 177.616 88.9113 186.152C89.0859 186.326 89.2615 186.5 89.4379 186.673L136.024 140.087C136.805 139.306 138.071 139.306 138.852 140.087L185.537 186.772C185.748 186.567 185.957 186.36 186.166 186.152C194.702 177.616 200.84 166.984 203.964 155.323C207.089 143.663 207.089 131.386 203.964 119.726C201.013 108.71 195.371 98.6119 187.559 90.3321C186.801 89.5286 186.799 88.2642 187.58 87.4832L233.379 41.6844ZM19.514 67.0302C18.9479 67.9786 19.2769 69.2026 20.2335 69.7549L76.3253 102.14C77.2819 102.692 78.5025 102.362 79.0824 101.422C81.535 97.4459 84.3865 93.7298 87.5926 90.3315C88.3506 89.5281 88.3529 88.2638 87.5718 87.4827L41.7731 41.684C40.992 40.9029 39.7246 40.9019 38.955 41.6942C31.5128 49.356 24.9885 57.8586 19.514 67.0302Z" fill="url(#paint0_linear)"/>
<defs>
<linearGradient id="paint0_linear" x1="137.538" y1="0" x2="137.538" y2="330.972" gradientUnits="userSpaceOnUse">
<stop offset="0.380208" stop-color="#FF6B00"/>
<stop offset="1" stop-color="#C5005E"/>
</linearGradient>
</defs>
</svg>
