<svg width="1759" height="294" viewBox="0 0 1759 294" fill="none" xmlns="http://www.w3.org/2000/svg">
<path fill-rule="evenodd" clip-rule="evenodd" d="M167.374 244.209C167.391 244.18 167.391 244.143 167.374 244.113C167.356 244.083 167.356 244.047 167.374 244.017L198.09 191.531C200.691 187.087 205.453 184.356 210.602 184.356H212.042C219.253 184.356 225.099 190.202 225.099 197.413C225.099 204.624 230.944 210.47 238.155 210.47H241.499C249.64 210.47 256.24 203.87 256.24 195.729L256.24 168.375C256.24 160.234 249.64 153.634 241.499 153.634H225.099C222.959 153.634 221.628 151.312 222.708 149.466L255.595 93.2706C261.346 83.4435 254.259 71.0839 242.873 71.0839L74.6669 71.0838C66.5256 71.0838 59.9258 64.484 59.9258 56.3427C59.9258 48.2014 66.5256 41.6016 74.6669 41.6016L277.381 41.6016C282.616 41.6016 287.459 38.8247 290.103 34.3061L297.005 22.5133C302.756 12.6862 295.669 0.32655 284.282 0.326547L14.7634 0.326477C3.37705 0.326474 -3.71032 12.6861 2.04084 22.5132L55.5281 113.908C58.1725 118.427 63.0151 121.204 68.2506 121.204L142.721 121.204C146.791 121.204 150.091 124.504 150.091 128.574C150.091 132.645 146.791 135.945 142.721 135.945L81.2781 135.945C75.5849 135.945 72.0412 142.125 74.9168 147.038C76.239 149.297 78.6603 150.686 81.2781 150.686L126.648 150.686C130.719 150.686 134.019 153.986 134.019 158.057C134.019 162.127 130.719 165.427 126.648 165.427L98.532 165.427C92.8388 165.427 89.2952 171.607 92.1707 176.52C93.4929 178.78 95.9143 180.168 98.532 180.168H111.907C115.978 180.168 119.278 183.468 119.278 187.539C119.278 191.609 115.978 194.909 111.907 194.909H89.3835C84.148 194.909 79.3053 197.686 76.6609 202.205L56.4641 236.716C53.7727 241.315 53.7727 247.008 56.4641 251.607L76.6609 286.118C79.3053 290.636 84.148 293.413 89.3835 293.413H130.125C135.36 293.413 140.203 290.636 142.848 286.118L167.374 244.209ZM93.5669 231.687C96.2113 227.169 101.054 224.392 106.289 224.392H111.733C116.969 224.392 121.812 227.169 124.456 231.687L128.142 237.985C130.833 242.584 130.833 248.277 128.142 252.876L125.942 256.635C123.297 261.154 118.454 263.931 113.219 263.931H106.289C101.054 263.931 96.2113 261.154 93.5669 256.635L90.6241 251.607C87.9326 247.008 87.9326 241.315 90.6241 236.716L93.5669 231.687Z" fill="url(#paint0_linear)"/>
<path d="M250.77 229.634C256.271 235.06 256.271 243.938 250.77 249.365C245.373 254.688 236.701 254.688 231.305 249.365C225.804 243.938 225.804 235.06 231.305 229.634C236.701 224.31 245.373 224.31 250.77 229.634Z" fill="url(#paint1_linear)"/>
<path d="M478.148 183.413C487.65 188.596 497.87 191.187 508.811 191.187C531.556 191.187 542.929 175.208 542.929 143.25C542.929 116.09 530.357 102.51 505.212 102.51C494.368 102.51 485.346 103.182 478.148 104.525V183.413ZM440 77.8935C460.058 73.7668 481.267 71.7034 503.629 71.7034C554.973 71.7034 580.645 95.6481 580.645 143.538C580.645 196.418 556.749 222.858 508.955 222.858C498.782 222.858 488.513 220.458 478.148 215.66V277.561H440V77.8935Z" fill="#3B3B3B"/>
<path d="M673.353 71.7034C719.227 71.7034 742.164 95.1203 742.164 141.954C742.164 148.192 741.732 154.43 740.869 160.668H640.531C640.531 181.974 656.174 192.627 687.461 192.627C702.72 192.627 717.98 191.187 733.239 188.308V218.539C719.899 221.418 703.68 222.858 684.582 222.858C629.782 222.858 602.383 197.089 602.383 145.553C602.383 96.3199 626.04 71.7034 673.353 71.7034ZM640.531 134.18H705.024V133.029C705.024 112.107 694.467 101.646 673.353 101.646C653.199 101.646 642.259 112.491 640.531 134.18Z" fill="#3B3B3B"/>
<path d="M770.812 222.858V71.7034H800.323L805.073 90.9935C818.317 78.1334 832.329 71.7034 847.108 71.7034V102.51C832.905 102.51 820.189 108.412 808.96 120.217V222.858H770.812Z" fill="#3B3B3B"/>
<path d="M980.268 218.539C967.792 221.418 954.836 222.858 941.4 222.858C887.656 222.858 860.784 196.705 860.784 144.401C860.784 95.936 887.656 71.7034 941.4 71.7034C954.836 71.7034 967.792 73.143 980.268 76.0221V106.253C967.792 103.374 955.795 101.934 944.279 101.934C914.048 101.934 898.933 116.09 898.933 144.401C898.933 176.552 914.048 192.627 944.279 192.627C955.795 192.627 967.792 191.187 980.268 188.308V218.539Z" fill="#3B3B3B"/>
<path d="M1036.41 146.705C1036.41 178.279 1048.65 194.066 1073.12 194.066C1097.59 194.066 1109.83 178.279 1109.83 146.705C1109.83 115.898 1097.59 100.495 1073.12 100.495C1048.65 100.495 1036.41 115.898 1036.41 146.705ZM998.263 147.28C998.263 96.6078 1023.22 71.2715 1073.12 71.2715C1123.02 71.2715 1147.98 96.6078 1147.98 147.28C1147.98 197.857 1123.02 223.145 1073.12 223.145C1023.41 223.145 998.455 197.857 998.263 147.28Z" fill="#3B3B3B"/>
<path d="M1214.92 17V222.858H1176.77V17H1214.92Z" fill="#3B3B3B"/>
<path d="M1243.85 175.784C1243.85 145.745 1265.73 130.725 1309.5 130.725C1319.77 130.725 1330.03 131.685 1340.3 133.605V122.232C1340.3 108.7 1330.56 101.934 1311.08 101.934C1294.57 101.934 1276.24 104.333 1256.09 109.132V78.9012C1276.24 74.1027 1294.57 71.7034 1311.08 71.7034C1355.99 71.7034 1378.45 88.3064 1378.45 121.512V222.858H1356.28L1342.75 209.326C1329.6 218.347 1315.11 222.858 1299.28 222.858C1262.33 222.858 1243.85 207.166 1243.85 175.784ZM1340.3 159.517C1330.71 157.597 1320.44 156.638 1309.5 156.638C1291.17 156.638 1282 162.876 1282 175.352C1282 188.788 1289.68 195.506 1305.03 195.506C1317.7 195.506 1329.46 191.571 1340.3 183.701V159.517Z" fill="#3B3B3B"/>
<path d="M1412.42 47.2308H1440.64L1446.4 71.7034H1484.4V101.934H1450.57V171.465C1450.57 185.573 1456.67 192.627 1468.86 192.627H1484.4V222.858H1450.43C1425.09 222.858 1412.42 209.278 1412.42 182.118V47.2308Z" fill="#3B3B3B"/>
<path d="M1541.41 146.705C1541.41 178.279 1553.65 194.066 1578.12 194.066C1602.59 194.066 1614.83 178.279 1614.83 146.705C1614.83 115.898 1602.59 100.495 1578.12 100.495C1553.65 100.495 1541.41 115.898 1541.41 146.705ZM1503.26 147.28C1503.26 96.6078 1528.21 71.2715 1578.12 71.2715C1628.02 71.2715 1652.98 96.6078 1652.98 147.28C1652.98 197.857 1628.02 223.145 1578.12 223.145C1528.41 223.145 1503.45 197.857 1503.26 147.28Z" fill="#3B3B3B"/>
<path d="M1681.77 222.858V71.7034H1711.28L1716.03 90.9935C1729.27 78.1334 1743.28 71.7034 1758.06 71.7034V102.51C1743.86 102.51 1731.14 108.412 1719.92 120.217V222.858H1681.77Z" fill="#3B3B3B"/>
<defs>
<linearGradient id="paint0_linear" x1="149.523" y1="0.326477" x2="149.523" y2="293.413" gradientUnits="userSpaceOnUse">
<stop stop-color="#FF6B00"/>
<stop offset="1" stop-color="#C5005E"/>
</linearGradient>
<linearGradient id="paint1_linear" x1="149.523" y1="0.326477" x2="149.523" y2="293.413" gradientUnits="userSpaceOnUse">
<stop stop-color="#FF6B00"/>
<stop offset="1" stop-color="#C5005E"/>
</linearGradient>
</defs>
</svg>
