<svg width="1003" height="499" viewBox="0 0 1003 499" fill="none" xmlns="http://www.w3.org/2000/svg">
<path d="M144.064 261.513C164.907 261.513 183.777 266.301 200.676 275.877C217.857 285.453 231.376 299.254 241.234 317.28C251.373 335.024 256.443 355.725 256.443 379.384C256.443 403.043 251.373 423.885 241.234 441.91C231.376 459.936 217.857 473.878 200.676 483.736C183.777 493.312 164.907 498.1 144.064 498.1C113.928 498.1 91.3957 489.228 76.4682 471.484V494.297H0V180.82H80.2705V285.172C95.7613 269.399 117.026 261.513 144.064 261.513ZM127.165 434.306C141.248 434.306 152.796 429.518 161.808 419.942C170.821 410.084 175.328 396.565 175.328 379.384C175.328 362.485 170.821 349.247 161.808 339.671C152.796 330.095 141.248 325.307 127.165 325.307C113.083 325.307 101.535 330.095 92.5223 339.671C83.5095 349.247 79.0031 362.485 79.0031 379.384C79.0031 396.565 83.5095 410.084 92.5223 419.942C101.535 429.518 113.083 434.306 127.165 434.306Z" fill="#3B3B3B"/>
<path d="M370.221 292.776C378.389 282.355 388.951 274.61 401.907 269.54C415.145 264.189 430.213 261.513 447.112 261.513V333.756C439.789 332.912 433.734 332.489 428.945 332.489C411.765 332.489 398.246 337.136 388.388 346.431C378.812 355.725 374.024 369.949 374.024 389.101V494.297H293.753V265.315H370.221V292.776Z" fill="#3B3B3B"/>
<path d="M593.087 498.1C568.584 498.1 546.474 493.03 526.759 482.891C507.043 472.751 491.552 458.669 480.286 440.643C469.302 422.617 463.81 402.198 463.81 379.384C463.81 356.852 469.302 336.573 480.286 318.547C491.552 300.522 506.902 286.58 526.336 276.722C546.052 266.583 568.302 261.513 593.087 261.513C617.873 261.513 640.123 266.583 659.839 276.722C679.554 286.58 694.904 300.522 705.889 318.547C716.873 336.291 722.365 356.57 722.365 379.384C722.365 402.198 716.873 422.617 705.889 440.643C694.904 458.669 679.554 472.751 659.839 482.891C640.123 493.03 617.873 498.1 593.087 498.1ZM593.087 434.306C607.17 434.306 618.718 429.518 627.73 419.942C636.743 410.084 641.25 396.565 641.25 379.384C641.25 362.485 636.743 349.247 627.73 339.671C618.718 330.095 607.17 325.307 593.087 325.307C579.005 325.307 567.457 330.095 558.444 339.671C549.432 349.247 544.925 362.485 544.925 379.384C544.925 396.565 549.432 410.084 558.444 419.942C567.457 429.518 579.005 434.306 593.087 434.306Z" fill="#3B3B3B"/>
<path d="M1002.9 180.82V494.297H926.428V471.484C911.5 489.228 889.109 498.1 859.254 498.1C838.412 498.1 819.4 493.312 802.22 483.736C785.039 473.878 771.379 459.936 761.24 441.91C751.382 423.885 746.453 403.043 746.453 379.384C746.453 355.725 751.382 335.024 761.24 317.28C771.379 299.254 785.039 285.453 802.22 275.877C819.4 266.301 838.412 261.513 859.254 261.513C886.574 261.513 907.698 269.399 922.626 285.172V180.82H1002.9ZM876.153 434.306C889.954 434.306 901.361 429.518 910.374 419.942C919.387 410.084 923.893 396.565 923.893 379.384C923.893 362.485 919.387 349.247 910.374 339.671C901.643 330.095 890.236 325.307 876.153 325.307C862.071 325.307 850.523 330.095 841.51 339.671C832.497 349.247 827.991 362.485 827.991 379.384C827.991 396.565 832.497 410.084 841.51 419.942C850.523 429.518 862.071 434.306 876.153 434.306Z" fill="#3B3B3B"/>
<path fill-rule="evenodd" clip-rule="evenodd" d="M478.501 1.05115C440.959 -4.55206 406.167 21.8521 401.461 59.5166C397.103 94.4078 420.048 125.774 452.632 133.607C454.665 134.096 456.141 135.907 456.073 137.996L454.129 197.879C453.742 209.807 463.307 219.688 475.242 219.688H702.269C714.268 219.688 723.858 209.705 723.376 197.715L720.889 135.862C720.812 133.938 722.051 132.218 723.865 131.571C753.219 121.113 772.848 91.0364 768.156 58.1701C762.853 21.0268 728.367 -4.72908 691.246 0.729843L603.437 13.643C589.887 15.6356 576.117 15.6208 562.572 13.5991L478.501 1.05115ZM525.561 80.2705C517.394 80.2705 510.774 86.8907 510.774 95.0572V149.979C510.774 158.146 517.394 164.766 525.561 164.766C533.727 164.766 540.347 158.146 540.347 149.979V95.0572C540.347 86.8907 533.727 80.2705 525.561 80.2705ZM584.707 164.766C576.541 164.766 569.921 158.146 569.921 149.979V95.0572C569.921 86.8907 576.541 80.2705 584.707 80.2705C592.874 80.2705 599.494 86.8907 599.494 95.0572V149.979C599.494 158.146 592.874 164.766 584.707 164.766ZM643.854 80.2705C635.688 80.2705 629.067 86.8907 629.067 95.0572V149.979C629.067 158.146 635.688 164.766 643.854 164.766C652.02 164.766 658.641 158.146 658.641 149.979V95.0572C658.641 86.8907 652.02 80.2705 643.854 80.2705Z" fill="url(#paint0_linear)"/>
<defs>
<linearGradient id="paint0_linear" x1="584.889" y1="0" x2="584.889" y2="219.688" gradientUnits="userSpaceOnUse">
<stop stop-color="#FF6B00"/>
<stop offset="1" stop-color="#C5005E"/>
</linearGradient>
</defs>
</svg>
