<svg width="114" height="135" viewBox="0 0 114 135" fill="none" xmlns="http://www.w3.org/2000/svg">
<path fill-rule="evenodd" clip-rule="evenodd" d="M57.1644 2.09467C57.1644 0.990101 58.0602 0.0909553 59.164 0.130254C67.6694 0.433055 75.9956 2.66405 83.5129 6.65453C84.4886 7.17243 84.8148 8.39901 84.2625 9.35559L72.2134 30.2252C71.6611 31.1818 70.4407 31.5025 69.4472 31.0197C66.2261 29.4541 62.7351 28.5186 59.1627 28.2639C58.061 28.1854 57.1644 27.2974 57.1644 26.1928L57.1644 2.09467ZM30.0354 9.35558C29.4831 8.399 29.8092 7.17246 30.7849 6.65456C33.9412 4.9791 37.2501 3.60851 40.6666 2.56142C41.7227 2.23775 42.8206 2.87443 43.1065 3.94136L49.3435 27.2184C49.6294 28.2853 48.9933 29.3751 47.9494 29.7361C46.8918 30.1019 45.857 30.5305 44.8506 31.0197C43.8572 31.5025 42.6367 31.1818 42.0844 30.2252L30.0354 9.35558ZM95.4563 17.9685C96.2373 17.1875 97.5065 17.1851 98.2593 17.9935C104.513 24.7092 109.035 32.8627 111.415 41.7464C113.968 51.2748 113.968 61.3073 111.415 70.8357C108.862 80.3641 103.846 89.0525 96.8705 96.0278C96.0935 96.8048 95.2952 97.5575 94.4769 98.2852L58.5068 134.255C57.7258 135.036 56.4595 135.036 55.6784 134.255L19.0522 97.6291C19.0221 97.5989 18.9931 97.5681 18.9653 97.5365C18.4335 97.0444 17.9106 96.5414 17.397 96.0278C10.4217 89.0525 5.40546 80.3641 2.85234 70.8357C0.471968 61.952 0.310909 52.6301 2.36916 43.6871C2.6169 42.6107 3.71726 41.9782 4.78419 42.264L28.0612 48.5011C29.1281 48.787 29.7538 49.8829 29.5445 50.9674C28.7399 55.1373 28.8894 59.4446 29.993 63.5634C31.2696 68.3276 33.7777 72.6718 37.2654 76.1594C37.3367 76.2308 37.4085 76.3018 37.4805 76.3723L55.6784 58.1744C56.4595 57.3934 57.7258 57.3934 58.5068 58.1744L76.7453 76.4129C76.8314 76.329 76.917 76.2445 77.0021 76.1594C80.4897 72.6718 82.9979 68.3276 84.2744 63.5634C85.551 58.7992 85.551 53.7829 84.2744 49.0187C83.1708 44.8999 81.1466 41.095 78.3649 37.8861C77.6413 37.0514 77.6353 35.7895 78.4163 35.0085L95.4563 17.9685ZM9.52762 26.4789C8.94164 27.4152 9.27247 28.6405 10.2291 29.1928L31.0986 41.2418C32.0552 41.7941 33.2725 41.4617 33.8915 40.5468C34.5185 39.62 35.2003 38.7314 35.9333 37.8859C36.6568 37.0513 36.6628 35.7894 35.8818 35.0083L18.8418 17.9684C18.0608 17.1873 16.7916 17.1849 16.0389 17.9932C13.6036 20.6083 11.4233 23.4498 9.52762 26.4789Z" fill="#FF6B00"/>
</svg>
