<svg width="467" height="135" viewBox="0 0 467 135" fill="none" xmlns="http://www.w3.org/2000/svg">
<path d="M175.043 77.7908C178.266 79.5486 181.732 80.4275 185.443 80.4275C193.158 80.4275 197.016 75.0076 197.016 64.1677C197.016 54.9555 192.751 50.3494 184.223 50.3494C180.544 50.3494 177.484 50.5772 175.043 51.033V77.7908ZM162.104 41.9998C168.907 40.6 176.101 39.9001 183.686 39.9001C201.101 39.9001 209.809 48.0219 209.809 64.2654C209.809 82.2016 201.703 91.1697 185.492 91.1697C182.042 91.1697 178.559 90.3559 175.043 88.7283V109.724H162.104V41.9998ZM217.182 75.2029C217.182 65.0141 224.604 59.9197 239.447 59.9197C242.93 59.9197 246.413 60.2452 249.896 60.8962V57.0388C249.896 52.449 246.592 50.1541 239.984 50.1541C234.385 50.1541 228.168 50.9679 221.332 52.5955V42.3416C228.168 40.7139 234.385 39.9001 239.984 39.9001C255.219 39.9001 262.836 45.5317 262.836 56.7947V91.1697H255.316L250.727 86.5798C246.267 89.6397 241.352 91.1697 235.98 91.1697C223.448 91.1697 217.182 85.8474 217.182 75.2029ZM249.896 69.6853C246.641 69.0343 243.158 68.7087 239.447 68.7087C233.23 68.7087 230.121 70.8246 230.121 75.0564C230.121 79.6137 232.725 81.8923 237.934 81.8923C242.23 81.8923 246.218 80.5577 249.896 77.8884V69.6853ZM275.092 91.1697V39.9001H285.102L286.713 47.4197C291.628 42.4067 297.227 39.9001 303.51 39.9001C315.652 39.9001 321.723 46.2153 321.723 58.8455V91.1697H308.783V58.8455C308.783 53.1814 305.967 50.3494 300.336 50.3494C296.137 50.3494 292.035 52.0258 288.031 55.3787V91.1697H275.092ZM333.979 88.7283V77.9861C339.675 80.2647 346.251 81.4041 353.705 81.4041C359.271 81.4041 362.055 79.6137 362.055 76.033C362.055 72.615 360.183 70.906 356.439 70.906H347.162C336.745 70.906 331.537 65.7791 331.537 55.5251C331.537 44.783 339.138 39.4119 354.34 39.4119C360.785 39.4119 366.856 40.3884 372.553 42.3416V53.0837C366.856 50.8051 360.671 49.6658 353.998 49.6658C346.999 49.6658 343.5 51.4561 343.5 55.0369C343.5 58.4548 345.535 60.1638 349.604 60.1638H357.904C369.298 60.1638 374.994 65.2908 374.994 75.5447C374.994 86.2869 367.735 91.658 353.217 91.658C346.088 91.658 339.675 90.6814 333.979 88.7283ZM381.635 75.2029C381.635 65.0141 389.057 59.9197 403.9 59.9197C407.383 59.9197 410.867 60.2452 414.35 60.8962V57.0388C414.35 52.449 411.046 50.1541 404.438 50.1541C398.839 50.1541 392.621 50.9679 385.785 52.5955V42.3416C392.621 40.7139 398.839 39.9001 404.438 39.9001C419.672 39.9001 427.289 45.5317 427.289 56.7947V91.1697H419.77L415.18 86.5798C410.72 89.6397 405.805 91.1697 400.434 91.1697C387.901 91.1697 381.635 85.8474 381.635 75.2029ZM414.35 69.6853C411.094 69.0343 407.611 68.7087 403.9 68.7087C397.683 68.7087 394.574 70.8246 394.574 75.0564C394.574 79.6137 397.178 81.8923 402.387 81.8923C406.684 81.8923 410.671 80.5577 414.35 77.8884V69.6853ZM439.545 91.1697V39.9001H449.555L451.166 46.4431C455.658 42.0811 460.411 39.9001 465.424 39.9001V50.3494C460.606 50.3494 456.293 52.3513 452.484 56.3552V91.1697H439.545Z" fill="#3B3B3B"/>
<path fill-rule="evenodd" clip-rule="evenodd" d="M56.2269 1.96565C56.2269 0.86108 57.1227 -0.0380654 58.2265 0.00123346C66.7319 0.304035 75.0581 2.53503 82.5754 6.52551C83.5511 7.04341 83.8773 8.26999 83.325 9.22657L71.2759 30.0962C70.7236 31.0527 69.5032 31.3735 68.5097 30.8906C65.2886 29.325 61.7976 28.3896 58.2252 28.1349C57.1235 28.0564 56.2269 27.1683 56.2269 26.0638L56.2269 1.96565ZM29.0979 9.22656C28.5456 8.26998 28.8717 7.04343 29.8474 6.52554C33.0037 4.85008 36.3126 3.47949 39.7291 2.43239C40.7852 2.10873 41.8831 2.74541 42.169 3.81234L48.406 27.0893C48.6919 28.1563 48.0558 29.2461 47.0119 29.6071C45.9543 29.9729 44.9195 30.4015 43.9131 30.8907C42.9197 31.3735 41.6992 31.0527 41.1469 30.0961L29.0979 9.22656ZM94.5188 17.8395C95.2998 17.0585 96.569 17.0561 97.3218 17.8644C103.576 24.5802 108.097 32.7337 110.478 41.6174C113.031 51.1458 113.031 61.1783 110.478 70.7067C107.925 80.2351 102.908 88.9235 95.933 95.8988C95.156 96.6758 94.3577 97.4285 93.5394 98.1562L57.5693 134.126C56.7883 134.907 55.522 134.907 54.7409 134.126L18.1147 97.5C18.0846 97.4699 18.0557 97.4391 18.0279 97.4075C17.496 96.9154 16.9731 96.4124 16.4595 95.8988C9.48424 88.9235 4.46796 80.2351 1.91484 70.7067C-0.465532 61.823 -0.626591 52.5011 1.43166 43.5581C1.6794 42.4817 2.77976 41.8491 3.84669 42.135L27.1237 48.3721C28.1906 48.658 28.8163 49.7538 28.607 50.8384C27.8024 55.0083 27.9519 59.3155 29.0555 63.4344C30.3321 68.1985 32.8402 72.5428 36.3279 76.0304C36.3992 76.1018 36.471 76.1727 36.543 76.2433L54.7409 58.0454C55.522 57.2644 56.7883 57.2644 57.5693 58.0454L75.8078 76.2839C75.8939 76.2 75.9795 76.1155 76.0646 76.0304C79.5522 72.5428 82.0604 68.1986 83.3369 63.4344C84.6135 58.6702 84.6135 53.6539 83.3369 48.8897C82.2333 44.7709 80.2091 40.9659 77.4274 37.757C76.7038 36.9224 76.6978 35.6605 77.4788 34.8795L94.5188 17.8395ZM8.59012 26.3499C8.00414 27.2862 8.33497 28.5115 9.29155 29.0638L30.1611 41.1128C31.1177 41.6651 32.335 41.3327 32.954 40.4178C33.581 39.491 34.2628 38.6024 34.9958 37.7568C35.7193 36.9222 35.7253 35.6603 34.9443 34.8793L17.9043 17.8394C17.1233 17.0583 15.8541 17.0559 15.1014 17.8642C12.6661 20.4793 10.4858 23.3207 8.59012 26.3499Z" fill="#3B3B3B"/>
</svg>
