<svg width="468" height="135" viewBox="0 0 468 135" fill="none" xmlns="http://www.w3.org/2000/svg">
<path d="M176.043 77.7908C179.266 79.5486 182.732 80.4275 186.443 80.4275C194.158 80.4275 198.016 75.0076 198.016 64.1677C198.016 54.9555 193.751 50.3494 185.223 50.3494C181.544 50.3494 178.484 50.5772 176.043 51.033V77.7908ZM163.104 41.9998C169.907 40.6 177.101 39.9001 184.686 39.9001C202.101 39.9001 210.809 48.0219 210.809 64.2654C210.809 82.2016 202.703 91.1697 186.492 91.1697C183.042 91.1697 179.559 90.3559 176.043 88.7283V109.724H163.104V41.9998ZM218.182 75.2029C218.182 65.0141 225.604 59.9197 240.447 59.9197C243.93 59.9197 247.413 60.2452 250.896 60.8962V57.0388C250.896 52.449 247.592 50.1541 240.984 50.1541C235.385 50.1541 229.168 50.9679 222.332 52.5955V42.3416C229.168 40.7139 235.385 39.9001 240.984 39.9001C256.219 39.9001 263.836 45.5317 263.836 56.7947V91.1697H256.316L251.727 86.5798C247.267 89.6397 242.352 91.1697 236.98 91.1697C224.448 91.1697 218.182 85.8474 218.182 75.2029ZM250.896 69.6853C247.641 69.0343 244.158 68.7087 240.447 68.7087C234.23 68.7087 231.121 70.8246 231.121 75.0564C231.121 79.6137 233.725 81.8923 238.934 81.8923C243.23 81.8923 247.218 80.5577 250.896 77.8884V69.6853ZM276.092 91.1697V39.9001H286.102L287.713 47.4197C292.628 42.4067 298.227 39.9001 304.51 39.9001C316.652 39.9001 322.723 46.2153 322.723 58.8455V91.1697H309.783V58.8455C309.783 53.1814 306.967 50.3494 301.336 50.3494C297.137 50.3494 293.035 52.0258 289.031 55.3787V91.1697H276.092ZM334.979 88.7283V77.9861C340.675 80.2647 347.251 81.4041 354.705 81.4041C360.271 81.4041 363.055 79.6137 363.055 76.033C363.055 72.615 361.183 70.906 357.439 70.906H348.162C337.745 70.906 332.537 65.7791 332.537 55.5251C332.537 44.783 340.138 39.4119 355.34 39.4119C361.785 39.4119 367.856 40.3884 373.553 42.3416V53.0837C367.856 50.8051 361.671 49.6658 354.998 49.6658C347.999 49.6658 344.5 51.4561 344.5 55.0369C344.5 58.4548 346.535 60.1638 350.604 60.1638H358.904C370.298 60.1638 375.994 65.2908 375.994 75.5447C375.994 86.2869 368.735 91.658 354.217 91.658C347.088 91.658 340.675 90.6814 334.979 88.7283ZM382.635 75.2029C382.635 65.0141 390.057 59.9197 404.9 59.9197C408.383 59.9197 411.867 60.2452 415.35 60.8962V57.0388C415.35 52.449 412.046 50.1541 405.438 50.1541C399.839 50.1541 393.621 50.9679 386.785 52.5955V42.3416C393.621 40.7139 399.839 39.9001 405.438 39.9001C420.672 39.9001 428.289 45.5317 428.289 56.7947V91.1697H420.77L416.18 86.5798C411.72 89.6397 406.805 91.1697 401.434 91.1697C388.901 91.1697 382.635 85.8474 382.635 75.2029ZM415.35 69.6853C412.094 69.0343 408.611 68.7087 404.9 68.7087C398.683 68.7087 395.574 70.8246 395.574 75.0564C395.574 79.6137 398.178 81.8923 403.387 81.8923C407.684 81.8923 411.671 80.5577 415.35 77.8884V69.6853ZM440.545 91.1697V39.9001H450.555L452.166 46.4431C456.658 42.0811 461.411 39.9001 466.424 39.9001V50.3494C461.606 50.3494 457.293 52.3513 453.484 56.3552V91.1697H440.545Z" fill="#3B3B3B"/>
<path fill-rule="evenodd" clip-rule="evenodd" d="M56.2269 1.96566C56.2269 0.861088 57.1227 -0.0380578 58.2265 0.00124109C66.7319 0.304042 75.0581 2.53504 82.5754 6.52551C83.5511 7.04341 83.8773 8.26999 83.325 9.22658L71.2759 30.0962C70.7236 31.0527 69.5032 31.3735 68.5097 30.8906C65.2886 29.3251 61.7976 28.3896 58.2252 28.1349C57.1235 28.0564 56.2269 27.1683 56.2269 26.0638L56.2269 1.96566ZM29.0979 9.22657C28.5456 8.26999 28.8717 7.04344 29.8474 6.52554C33.0037 4.85009 36.3126 3.4795 39.7291 2.4324C40.7852 2.10874 41.8831 2.74542 42.169 3.81235L48.406 27.0893C48.6919 28.1563 48.0558 29.2461 47.0119 29.6071C45.9543 29.9729 44.9195 30.4015 43.9131 30.8907C42.9197 31.3735 41.6992 31.0527 41.1469 30.0962L29.0979 9.22657ZM94.5188 17.8395C95.2998 17.0585 96.569 17.0561 97.3218 17.8644C103.576 24.5802 108.097 32.7337 110.478 41.6174C113.031 51.1458 113.031 61.1783 110.478 70.7067C107.925 80.2351 102.908 88.9235 95.933 95.8988C95.156 96.6758 94.3577 97.4285 93.5394 98.1562L57.5693 134.126C56.7883 134.907 55.522 134.907 54.7409 134.126L18.1147 97.5C18.0846 97.4699 18.0557 97.4391 18.0279 97.4076C17.496 96.9154 16.9731 96.4124 16.4595 95.8988C9.48424 88.9235 4.46796 80.2351 1.91484 70.7067C-0.465532 61.823 -0.626591 52.5011 1.43166 43.5581C1.6794 42.4817 2.77976 41.8491 3.84669 42.135L27.1237 48.3721C28.1906 48.658 28.8163 49.7538 28.607 50.8384C27.8024 55.0083 27.9519 59.3155 29.0555 63.4344C30.3321 68.1986 32.8402 72.5428 36.3279 76.0304C36.3992 76.1018 36.471 76.1727 36.543 76.2433L54.7409 58.0454C55.522 57.2644 56.7883 57.2644 57.5693 58.0454L75.8078 76.2839C75.8939 76.2 75.9795 76.1155 76.0646 76.0304C79.5522 72.5428 82.0604 68.1986 83.3369 63.4344C84.6135 58.6702 84.6135 53.6539 83.3369 48.8897C82.2333 44.7709 80.2091 40.9659 77.4274 37.757C76.7038 36.9224 76.6978 35.6605 77.4788 34.8795L94.5188 17.8395ZM8.59012 26.3499C8.00414 27.2862 8.33497 28.5115 9.29155 29.0638L30.1611 41.1128C31.1177 41.6651 32.335 41.3327 32.954 40.4178C33.581 39.491 34.2628 38.6024 34.9958 37.7569C35.7193 36.9222 35.7253 35.6604 34.9443 34.8793L17.9043 17.8394C17.1233 17.0583 15.8541 17.0559 15.1014 17.8642C12.6661 20.4793 10.4858 23.3207 8.59012 26.3499Z" fill="url(#paint0_linear)"/>
<defs>
<linearGradient id="paint0_linear" x1="56.1962" y1="0" x2="56.1962" y2="134.712" gradientUnits="userSpaceOnUse">
<stop offset="0.380208" stop-color="#FF6B00"/>
<stop offset="1" stop-color="#C5005E"/>
</linearGradient>
</defs>
</svg>
