<svg width="589" height="100" viewBox="0 0 589 100" fill="none" xmlns="http://www.w3.org/2000/svg">
<path fill-rule="evenodd" clip-rule="evenodd" d="M56.771 82.7219C56.7769 82.7118 56.7769 82.6994 56.771 82.6893V82.6893C56.7651 82.6792 56.7651 82.6668 56.771 82.6567L67.1897 64.8539C68.0718 63.3467 69.6871 62.4205 71.4335 62.4205H71.9218C74.3677 62.4205 76.3505 64.4033 76.3505 66.8492V66.8492C76.3505 69.2951 78.3333 71.2779 80.7792 71.2779H81.9132C84.6747 71.2779 86.9132 69.0393 86.9132 66.2779L86.9133 62.4205V57C86.9133 54.2386 84.6747 52 81.9133 52H76.3505V52C75.6249 52 75.1732 51.2123 75.5397 50.5861L86.6946 31.5255C88.6453 28.1922 86.2414 24 82.3793 24L25.3261 24C22.5646 24 20.3261 21.7614 20.3261 19V19C20.3261 16.2386 22.5646 14 25.3261 14L94.0839 14C95.8597 14 97.5023 13.0581 98.3993 11.5255L100.74 7.52549C102.691 4.19225 100.287 2.46522e-05 96.4249 2.3653e-05L5.00756 0C1.14545 -9.99266e-07 -1.25849 4.19221 0.692227 7.52546L18.8344 38.5255C19.7314 40.0581 21.3739 41 23.1497 41L48.409 41C49.7897 41 50.909 42.1193 50.909 43.5V43.5C50.909 44.8807 49.7897 46 48.409 46L27.5685 46C25.6374 46 24.4354 48.0961 25.4108 49.7627V49.7627C25.8593 50.529 26.6806 51 27.5685 51L42.9574 51C44.3382 51 45.4574 52.1193 45.4574 53.5V53.5C45.4574 54.8807 44.3382 56 42.9574 56L33.4208 56C31.4897 56 30.2878 58.0961 31.2631 59.7627V59.7627C31.7116 60.529 32.5329 61 33.4208 61H37.9574C39.3382 61 40.4574 62.1193 40.4574 63.5V63.5C40.4574 64.8807 39.3382 66 37.9574 66H34.9134H30.3177C28.5419 66 26.8993 66.9419 26.0024 68.4745L19.1519 80.1801C18.239 81.74 18.239 83.6712 19.1519 85.2311L26.0024 96.9367C26.8993 98.4693 28.5419 99.4112 30.3177 99.4112H44.1367C45.9125 99.4112 47.5551 98.4693 48.452 96.9367L56.771 82.7219ZM31.7367 78.4745C32.6336 76.9419 34.2762 76 36.052 76H37.8985C39.6744 76 41.3169 76.9419 42.2139 78.4745L43.464 80.6106C44.3769 82.1705 44.3769 84.1017 43.464 85.6616L42.7178 86.9367C41.8208 88.4693 40.1782 89.4112 38.4024 89.4112H36.052C34.2762 89.4112 32.6336 88.4693 31.7367 86.9367L30.7385 85.2311C29.8256 83.6712 29.8256 81.74 30.7385 80.1801L31.7367 78.4745ZM85.0579 77.778C86.9238 79.6187 86.9238 82.6298 85.0579 84.4705V84.4705C83.2275 86.2763 80.2859 86.2763 78.4555 84.4705V84.4705C76.5897 82.6298 76.5897 79.6187 78.4555 77.778V77.778C80.2859 75.9723 83.2275 75.9723 85.0579 77.778V77.778Z" fill="#3B3B3B"/>
<path d="M153.043 61.6211C156.266 63.3789 159.732 64.2578 163.443 64.2578C171.158 64.2578 175.016 58.8379 175.016 47.998C175.016 38.7858 170.751 34.1797 162.223 34.1797C158.544 34.1797 155.484 34.4076 153.043 34.8633V61.6211ZM140.104 25.8301C146.907 24.4303 154.101 23.7305 161.686 23.7305C179.101 23.7305 187.809 31.8522 187.809 48.0957C187.809 66.0319 179.703 75 163.492 75C160.042 75 156.559 74.1862 153.043 72.5586V93.5547H140.104V25.8301ZM219.254 23.7305C234.814 23.7305 242.594 31.6732 242.594 47.5586C242.594 49.6745 242.447 51.7904 242.154 53.9062H208.121C208.121 61.1328 213.427 64.7461 224.039 64.7461C229.215 64.7461 234.391 64.2578 239.566 63.2812V73.5352C235.042 74.5117 229.54 75 223.062 75C204.475 75 195.182 66.2598 195.182 48.7793C195.182 32.0801 203.206 23.7305 219.254 23.7305ZM208.121 44.9219H229.996V44.5312C229.996 37.4349 226.415 33.8867 219.254 33.8867C212.418 33.8867 208.707 37.5651 208.121 44.9219ZM252.311 75V23.7305H262.32L263.932 30.2734C268.424 25.9115 273.176 23.7305 278.189 23.7305V34.1797C273.372 34.1797 269.059 36.1816 265.25 40.1855V75H252.311ZM323.355 73.5352C319.124 74.5117 314.729 75 310.172 75C291.943 75 282.828 66.1296 282.828 48.3887C282.828 31.9499 291.943 23.7305 310.172 23.7305C314.729 23.7305 319.124 24.2188 323.355 25.1953V35.4492C319.124 34.4727 315.055 33.9844 311.148 33.9844C300.895 33.9844 295.768 38.7858 295.768 48.3887C295.768 59.2936 300.895 64.7461 311.148 64.7461C315.055 64.7461 319.124 64.2578 323.355 63.2812V73.5352ZM342.398 49.1699C342.398 59.8796 346.549 65.2344 354.85 65.2344C363.15 65.2344 367.301 59.8796 367.301 49.1699C367.301 38.7207 363.15 33.4961 354.85 33.4961C346.549 33.4961 342.398 38.7207 342.398 49.1699ZM329.459 49.3652C329.459 32.1777 337.923 23.584 354.85 23.584C371.777 23.584 380.24 32.1777 380.24 49.3652C380.24 66.5202 371.777 75.0977 354.85 75.0977C337.988 75.0977 329.524 66.5202 329.459 49.3652ZM402.945 5.17578V75H390.006V5.17578H402.945ZM412.76 59.0332C412.76 48.8444 420.182 43.75 435.025 43.75C438.508 43.75 441.992 44.0755 445.475 44.7266V40.8691C445.475 36.2793 442.171 33.9844 435.562 33.9844C429.964 33.9844 423.746 34.7982 416.91 36.4258V26.1719C423.746 24.5443 429.964 23.7305 435.562 23.7305C450.797 23.7305 458.414 29.362 458.414 40.625V75H450.895L446.305 70.4102C441.845 73.4701 436.93 75 431.559 75C419.026 75 412.76 69.6777 412.76 59.0332ZM445.475 53.5156C442.219 52.8646 438.736 52.5391 435.025 52.5391C428.808 52.5391 425.699 54.6549 425.699 58.8867C425.699 63.444 428.303 65.7227 433.512 65.7227C437.809 65.7227 441.796 64.388 445.475 61.7188V53.5156ZM469.938 15.4297H479.508L481.461 23.7305H494.352V33.9844H482.877V57.5684C482.877 62.3535 484.944 64.7461 489.078 64.7461H494.352V75H482.828C474.234 75 469.938 70.3939 469.938 61.1816V15.4297ZM513.688 49.1699C513.688 59.8796 517.838 65.2344 526.139 65.2344C534.439 65.2344 538.59 59.8796 538.59 49.1699C538.59 38.7207 534.439 33.4961 526.139 33.4961C517.838 33.4961 513.688 38.7207 513.688 49.1699ZM500.748 49.3652C500.748 32.1777 509.212 23.584 526.139 23.584C543.066 23.584 551.529 32.1777 551.529 49.3652C551.529 66.5202 543.066 75.0977 526.139 75.0977C509.277 75.0977 500.813 66.5202 500.748 49.3652ZM561.295 75V23.7305H571.305L572.916 30.2734C577.408 25.9115 582.161 23.7305 587.174 23.7305V34.1797C582.356 34.1797 578.043 36.1816 574.234 40.1855V75H561.295Z" fill="#3B3B3B"/>
</svg>
