<svg width="114" height="135" viewBox="0 0 114 135" fill="none" xmlns="http://www.w3.org/2000/svg">
<path fill-rule="evenodd" clip-rule="evenodd" d="M57.1644 1.96566C57.1644 0.861088 58.0602 -0.0380578 59.164 0.00124109C67.6694 0.304042 75.9956 2.53504 83.5129 6.52551C84.4886 7.04341 84.8148 8.26999 84.2625 9.22658L72.2134 30.0962C71.6611 31.0527 70.4407 31.3735 69.4472 30.8906C66.2261 29.3251 62.7351 28.3896 59.1627 28.1349C58.061 28.0564 57.1644 27.1683 57.1644 26.0638L57.1644 1.96566ZM30.0354 9.22657C29.4831 8.26999 29.8092 7.04344 30.7849 6.52554C33.9412 4.85009 37.2501 3.4795 40.6666 2.4324C41.7227 2.10874 42.8206 2.74542 43.1065 3.81235L49.3435 27.0893C49.6294 28.1563 48.9933 29.2461 47.9494 29.6071C46.8918 29.9729 45.857 30.4015 44.8506 30.8907C43.8572 31.3735 42.6367 31.0527 42.0844 30.0962L30.0354 9.22657ZM95.4563 17.8395C96.2373 17.0585 97.5065 17.0561 98.2593 17.8644C104.513 24.5802 109.035 32.7337 111.415 41.6174C113.968 51.1458 113.968 61.1783 111.415 70.7067C108.862 80.2351 103.846 88.9235 96.8705 95.8988C96.0935 96.6758 95.2952 97.4285 94.4769 98.1562L58.5068 134.126C57.7258 134.907 56.4595 134.907 55.6784 134.126L19.0522 97.5C19.0221 97.4699 18.9932 97.4391 18.9654 97.4076C18.4335 96.9154 17.9106 96.4124 17.397 95.8988C10.4217 88.9235 5.40546 80.2351 2.85234 70.7067C0.471968 61.823 0.310909 52.5011 2.36916 43.5581C2.6169 42.4817 3.71726 41.8491 4.78419 42.135L28.0612 48.3721C29.1281 48.658 29.7538 49.7538 29.5445 50.8384C28.7399 55.0083 28.8894 59.3155 29.993 63.4344C31.2696 68.1986 33.7777 72.5428 37.2654 76.0304C37.3367 76.1018 37.4085 76.1727 37.4805 76.2433L55.6784 58.0454C56.4595 57.2644 57.7258 57.2644 58.5068 58.0454L76.7453 76.2839C76.8314 76.2 76.917 76.1155 77.0021 76.0304C80.4897 72.5428 82.9979 68.1986 84.2744 63.4344C85.551 58.6702 85.551 53.6539 84.2744 48.8897C83.1708 44.7709 81.1466 40.9659 78.3649 37.757C77.6413 36.9224 77.6353 35.6605 78.4163 34.8795L95.4563 17.8395ZM9.52762 26.3499C8.94164 27.2862 9.27247 28.5115 10.2291 29.0638L31.0986 41.1128C32.0552 41.6651 33.2725 41.3327 33.8915 40.4178C34.5185 39.491 35.2003 38.6024 35.9333 37.7569C36.6568 36.9222 36.6628 35.6604 35.8818 34.8793L18.8418 17.8394C18.0608 17.0583 16.7916 17.0559 16.0389 17.8642C13.6036 20.4793 11.4233 23.3207 9.52762 26.3499Z" fill="url(#paint0_linear)"/>
<defs>
<linearGradient id="paint0_linear" x1="57.1337" y1="0" x2="57.1337" y2="134.712" gradientUnits="userSpaceOnUse">
<stop offset="0.380208" stop-color="#FF6B00"/>
<stop offset="1" stop-color="#FF0000"/>
</linearGradient>
</defs>
</svg>
