<svg width="690" height="343" viewBox="0 0 690 343" fill="none" xmlns="http://www.w3.org/2000/svg">
<path d="M99.3378 180.51C113.652 180.51 126.613 183.798 138.219 190.375C150.019 196.952 159.304 206.431 166.075 218.811C173.039 230.998 176.521 245.216 176.521 261.465C176.521 277.714 173.039 292.029 166.075 304.409C159.304 316.789 150.019 326.364 138.219 333.135C126.613 339.712 113.652 343 99.3378 343C78.6396 343 63.1643 336.907 52.912 324.72V340.389H0.392822V125.089H55.5234V196.759C66.1627 185.926 80.7675 180.51 99.3378 180.51ZM87.7313 299.186C97.4034 299.186 105.334 295.897 111.525 289.32C117.715 282.55 120.81 273.265 120.81 261.465C120.81 249.858 117.715 240.767 111.525 234.19C105.334 227.613 97.4034 224.324 87.7313 224.324C78.0593 224.324 70.1282 227.613 63.9381 234.19C57.748 240.767 54.653 249.858 54.653 261.465C54.653 273.265 57.748 282.55 63.9381 289.32C70.1282 295.897 78.0593 299.186 87.7313 299.186Z" fill="#3B3B3B"/>
<path d="M254.665 201.982C260.274 194.825 267.528 189.505 276.427 186.023C285.518 182.348 295.868 180.51 307.474 180.51V230.127C302.445 229.547 298.286 229.257 294.997 229.257C283.197 229.257 273.912 232.449 267.142 238.832C260.565 245.216 257.276 254.985 257.276 268.139V340.389H202.145V183.121H254.665V201.982Z" fill="#3B3B3B"/>
<path d="M407.731 343C390.902 343 375.717 339.518 362.176 332.554C348.635 325.59 337.996 315.918 330.258 303.538C322.714 291.158 318.942 277.134 318.942 261.465C318.942 245.99 322.714 232.062 330.258 219.682C337.996 207.301 348.539 197.726 361.886 190.956C375.427 183.992 390.709 180.51 407.731 180.51C424.754 180.51 440.036 183.992 453.577 190.956C467.118 197.726 477.66 207.301 485.204 219.682C492.749 231.868 496.521 245.796 496.521 261.465C496.521 277.134 492.749 291.158 485.204 303.538C477.66 315.918 467.118 325.59 453.577 332.554C440.036 339.518 424.754 343 407.731 343ZM407.731 299.186C417.403 299.186 425.335 295.897 431.525 289.32C437.715 282.55 440.81 273.265 440.81 261.465C440.81 249.858 437.715 240.767 431.525 234.19C425.335 227.613 417.403 224.324 407.731 224.324C398.059 224.324 390.128 227.613 383.938 234.19C377.748 240.767 374.653 249.858 374.653 261.465C374.653 273.265 377.748 282.55 383.938 289.32C390.128 295.897 398.059 299.186 407.731 299.186Z" fill="#3B3B3B"/>
<path d="M689.192 125.089V340.389H636.673V324.72C626.421 336.907 611.042 343 590.538 343C576.223 343 563.166 339.712 551.366 333.135C539.566 326.364 530.184 316.789 523.22 304.409C516.45 292.029 513.064 277.714 513.064 261.465C513.064 245.216 516.45 230.998 523.22 218.811C530.184 206.431 539.566 196.952 551.366 190.375C563.166 183.798 576.223 180.51 590.538 180.51C609.301 180.51 623.809 185.926 634.062 196.759V125.089H689.192ZM602.144 299.186C611.623 299.186 619.457 295.897 625.647 289.32C631.837 282.55 634.932 273.265 634.932 261.465C634.932 249.858 631.837 240.767 625.647 234.19C619.65 227.613 611.816 224.324 602.144 224.324C592.472 224.324 584.541 227.613 578.351 234.19C572.161 240.767 569.066 249.858 569.066 261.465C569.066 273.265 572.161 282.55 578.351 289.32C584.541 295.897 592.472 299.186 602.144 299.186Z" fill="#3B3B3B"/>
<path fill-rule="evenodd" clip-rule="evenodd" d="M329.032 1.62197C303.248 -2.22638 279.352 15.9083 276.121 41.7767C273.127 65.7403 288.886 87.2832 311.265 92.6628C312.661 92.9984 313.675 94.2422 313.629 95.6773L312.294 136.805C312.028 144.998 318.597 151.784 326.794 151.784H482.718C490.96 151.784 497.546 144.928 497.215 136.693L495.507 94.2113C495.454 92.8898 496.305 91.7086 497.551 91.2647C517.711 84.082 531.193 63.4248 527.97 40.8519C524.328 15.3415 500.643 -2.34796 475.148 1.40129L414.84 10.2701C405.533 11.6387 396.076 11.6285 386.773 10.24L329.032 1.62197ZM361.353 56.0306C355.745 56.0306 351.198 60.5775 351.198 66.1863V103.907C351.198 109.516 355.745 114.063 361.353 114.063C366.962 114.063 371.509 109.516 371.509 103.907V66.1863C371.509 60.5775 366.962 56.0306 361.353 56.0306ZM401.976 114.063C396.367 114.063 391.82 109.516 391.82 103.907V66.1863C391.82 60.5775 396.367 56.0306 401.976 56.0306C407.585 56.0306 412.132 60.5775 412.132 66.1863V103.907C412.132 109.516 407.585 114.063 401.976 114.063ZM442.599 56.0306C436.99 56.0306 432.443 60.5775 432.443 66.1863V103.907C432.443 109.516 436.99 114.063 442.599 114.063C448.207 114.063 452.754 109.516 452.754 103.907V66.1863C452.754 60.5775 448.207 56.0306 442.599 56.0306Z" fill="url(#paint0_linear)"/>
<defs>
<linearGradient id="paint0_linear" x1="402.101" y1="0.900024" x2="402.101" y2="151.784" gradientUnits="userSpaceOnUse">
<stop stop-color="#FF6B00"/>
<stop offset="1" stop-color="#C5005E"/>
</linearGradient>
</defs>
</svg>
