<svg width="113" height="135" viewBox="0 0 113 135" fill="none" xmlns="http://www.w3.org/2000/svg">
<path fill-rule="evenodd" clip-rule="evenodd" d="M56.5569 2.23373C56.557 1.12916 57.4527 0.230016 58.5566 0.269315C67.062 0.572116 75.3882 2.80312 82.9055 6.79359C83.8811 7.31149 84.2073 8.53807 83.6551 9.49465L71.606 30.3642C71.0537 31.3208 69.8332 31.6416 68.8398 31.1587C65.6187 29.5931 62.1276 28.6577 58.5553 28.403C57.4535 28.3244 56.5569 27.4364 56.5569 26.3318L56.5569 2.23373ZM29.428 9.49465C28.8757 8.53806 29.2018 7.31152 30.1775 6.79362C33.3337 5.11816 36.6426 3.74757 40.0592 2.70048C41.1153 2.37681 42.2132 3.01349 42.4991 4.08042L48.7361 27.3574C49.022 28.4244 48.3858 29.5142 47.3419 29.8752C46.2844 30.241 45.2496 30.6696 44.2432 31.1587C43.2497 31.6416 42.0293 31.3208 41.477 30.3642L29.428 9.49465ZM94.8488 18.1076C95.6299 17.3265 96.8991 17.3242 97.6519 18.1325C103.906 24.8482 108.427 33.0018 110.808 41.8855C113.361 51.4138 113.361 61.4464 110.808 70.9748C108.255 80.5032 103.238 89.1916 96.263 96.1669C95.486 96.9439 94.6878 97.6966 93.8694 98.4243L57.8994 134.394C57.1184 135.175 55.852 135.175 55.071 134.394L18.4448 97.7681C18.4147 97.738 18.3857 97.7071 18.3579 97.6756C17.8261 97.1835 17.3032 96.6805 16.7896 96.1669C9.81432 89.1916 4.79804 80.5031 2.24492 70.9748C-0.135454 62.0911 -0.296513 52.7692 1.76174 43.8262C2.00948 42.7498 3.10984 42.1172 4.17677 42.4031L27.4538 48.6401C28.5207 48.926 29.1464 50.0219 28.9371 51.1065C28.1325 55.2764 28.282 59.5836 29.3856 63.7024C30.6622 68.4666 33.1703 72.8109 36.6579 76.2985C36.7293 76.3699 36.801 76.4408 36.8731 76.5114L55.071 58.3135C55.852 57.5324 57.1184 57.5324 57.8994 58.3135L76.1379 76.552C76.224 76.4681 76.3096 76.3836 76.3947 76.2985C79.8823 72.8109 82.3904 68.4666 83.667 63.7024C84.9436 58.9383 84.9436 53.922 83.667 49.1578C82.5634 45.039 80.5392 41.234 77.7574 38.0251C77.0339 37.1905 77.0278 35.9286 77.8089 35.1475L94.8488 18.1076ZM8.92019 26.6179C8.33422 27.5543 8.66504 28.7796 9.62163 29.3318L30.4912 41.3809C31.4478 41.9332 32.6651 41.6008 33.284 40.6859C33.9111 39.759 34.5929 38.8705 35.3259 38.0249C36.0494 37.1903 36.0554 35.9284 35.2744 35.1474L18.2344 18.1074C17.4534 17.3264 16.1842 17.324 15.4314 18.1323C12.9962 20.7474 10.8159 23.5888 8.92019 26.6179Z" fill="url(#paint0_linear)"/>
<defs>
<linearGradient id="paint0_linear" x1="56.5263" y1="0.268074" x2="56.5263" y2="134.98" gradientUnits="userSpaceOnUse">
<stop offset="0.541667" stop-color="#FF6B00"/>
<stop offset="1" stop-color="#C5005E"/>
</linearGradient>
</defs>
</svg>
