<svg width="256" height="241" viewBox="0 0 256 241" fill="none" xmlns="http://www.w3.org/2000/svg">
<path fill-rule="evenodd" clip-rule="evenodd" d="M255.922 113.28C255.97 113.252 256 113.201 256 113.145V113.145C256 113.059 255.93 112.989 255.844 112.989H179.127C176.366 112.989 174.155 115.234 173.856 117.979C173.152 124.453 171.082 130.725 167.762 136.371C163.594 143.458 157.607 149.303 150.422 153.3C143.237 157.296 135.114 159.3 126.894 159.103C118.674 158.906 110.657 156.515 103.671 152.179C96.686 147.842 90.9866 141.717 87.1633 134.438C83.3401 127.159 81.5319 118.99 81.926 110.778C82.3201 102.565 84.9022 94.6073 89.405 87.7278C92.9921 82.2473 97.6942 77.6099 103.184 74.1063C105.512 72.6207 106.543 69.6435 105.318 67.1687L73.4318 2.75599C72.2067 0.28119 69.2018 -0.740537 66.7767 0.580257C48.251 10.6701 32.4818 25.1969 20.9009 42.8907C8.406 61.9809 1.24084 84.0638 0.147167 106.853C-0.946503 129.643 4.07108 152.31 14.6804 172.509C25.2898 192.708 41.1053 209.704 60.4895 221.738C79.8738 233.771 102.122 240.405 124.931 240.952C147.74 241.499 170.281 235.94 190.22 224.849C203.681 217.361 215.627 207.536 225.526 195.891C226.863 194.318 227.029 192.073 225.997 190.284L202.634 149.819C201.253 147.428 202.073 144.37 204.464 142.989L255.922 113.28Z" fill="#FB923C"/>
</svg>
