<svg width="1783" height="340" viewBox="0 0 1783 340" fill="none" xmlns="http://www.w3.org/2000/svg">
<path fill-rule="evenodd" clip-rule="evenodd" d="M194.213 282.92C194.234 282.886 194.234 282.843 194.213 282.809C194.193 282.774 194.193 282.732 194.213 282.697L229.856 221.809C232.873 216.655 238.399 213.487 244.374 213.487H246.044C254.412 213.487 261.195 220.268 261.195 228.633C261.195 236.999 267.978 243.78 276.346 243.78H280.225C289.672 243.78 297.33 236.124 297.33 226.679L297.33 194.948C297.33 185.503 289.672 177.847 280.225 177.847H261.195C258.713 177.847 257.167 175.153 258.421 173.011L296.582 107.821C303.256 96.4213 295.032 82.0833 281.819 82.0833L86.6404 82.0833C77.1936 82.0832 69.5354 74.427 69.5354 64.9826C69.5354 55.5381 77.1936 47.8819 86.6404 47.8819L321.861 47.8819C327.936 47.8819 333.555 44.6605 336.624 39.4187L344.632 25.7382C351.305 14.3381 343.081 8.4314e-05 329.869 8.08964e-05L17.1308 0C3.91859 -3.41763e-06 -4.30531 14.3379 2.36811 25.7381L64.4325 131.762C67.5009 137.004 73.1201 140.226 79.1952 140.226L165.607 140.226C170.331 140.226 174.16 144.054 174.16 148.776C174.16 153.498 170.331 157.326 165.607 157.326L94.3117 157.326C87.7056 157.326 83.5936 164.495 86.9303 170.195C88.4645 172.816 91.2741 174.427 94.3117 174.427L146.957 174.427C151.681 174.427 155.51 178.255 155.51 182.977C155.51 187.7 151.681 191.528 146.957 191.528L114.332 191.528C107.726 191.528 103.614 198.697 106.951 204.397C108.485 207.018 111.295 208.628 114.332 208.628H129.852C134.576 208.628 138.405 212.457 138.405 217.179C138.405 221.901 134.576 225.729 129.852 225.729H103.717C97.6418 225.729 92.0226 228.951 88.9541 234.192L65.5186 274.227C62.3956 279.562 62.3956 286.167 65.5186 291.502L88.9541 331.537C92.0226 336.779 97.6418 340 103.717 340H150.992C157.067 340 162.686 336.779 165.754 331.537L194.213 282.92ZM108.571 268.394C111.64 263.152 117.259 259.93 123.334 259.93H129.651C135.726 259.93 141.345 263.152 144.414 268.394L148.69 275.699C151.813 281.035 151.813 287.639 148.69 292.974L146.137 297.335C143.069 302.577 137.45 305.799 131.375 305.799H123.334C117.259 305.799 111.64 302.577 108.571 297.335L105.156 291.502C102.033 286.167 102.033 279.562 105.156 274.227L108.571 268.394Z" fill="url(#paint0_linear)"/>
<path d="M290.983 266.011C297.366 272.307 297.366 282.605 290.983 288.901C284.721 295.077 274.658 295.077 268.396 288.901C262.013 282.605 262.013 272.307 268.396 266.012C274.658 259.836 284.721 259.836 290.983 266.011Z" fill="url(#paint1_linear)"/>
<path d="M502.148 206.413C511.65 211.596 521.87 214.187 532.811 214.187C555.556 214.187 566.929 198.208 566.929 166.25C566.929 139.09 554.357 125.51 529.212 125.51C518.368 125.51 509.346 126.182 502.148 127.525V206.413ZM464 100.894C484.058 96.7668 505.267 94.7034 527.629 94.7034C578.973 94.7034 604.645 118.648 604.645 166.538C604.645 219.418 580.749 245.858 532.955 245.858C522.782 245.858 512.513 243.458 502.148 238.66V300.561H464V100.894Z" fill="#3B3B3B"/>
<path d="M697.353 94.7034C743.227 94.7034 766.164 118.12 766.164 164.954C766.164 171.192 765.732 177.43 764.869 183.668H664.531C664.531 204.974 680.174 215.627 711.461 215.627C726.72 215.627 741.98 214.187 757.239 211.308V241.539C743.899 244.418 727.68 245.858 708.582 245.858C653.782 245.858 626.383 220.089 626.383 168.553C626.383 119.32 650.04 94.7034 697.353 94.7034ZM664.531 157.18H729.024V156.029C729.024 135.107 718.467 124.646 697.353 124.646C677.199 124.646 666.259 135.491 664.531 157.18Z" fill="#3B3B3B"/>
<path d="M794.812 245.858V94.7034H824.323L829.073 113.994C842.317 101.133 856.329 94.7034 871.108 94.7034V125.51C856.905 125.51 844.189 131.412 832.96 143.217V245.858H794.812Z" fill="#3B3B3B"/>
<path d="M1004.27 241.539C991.792 244.418 978.836 245.858 965.4 245.858C911.656 245.858 884.784 219.705 884.784 167.401C884.784 118.936 911.656 94.7034 965.4 94.7034C978.836 94.7034 991.792 96.143 1004.27 99.0221V129.253C991.792 126.374 979.795 124.934 968.279 124.934C938.048 124.934 922.933 139.09 922.933 167.401C922.933 199.552 938.048 215.627 968.279 215.627C979.795 215.627 991.792 214.187 1004.27 211.308V241.539Z" fill="#3B3B3B"/>
<path d="M1060.41 169.705C1060.41 201.279 1072.65 217.066 1097.12 217.066C1121.59 217.066 1133.83 201.279 1133.83 169.705C1133.83 138.898 1121.59 123.495 1097.12 123.495C1072.65 123.495 1060.41 138.898 1060.41 169.705ZM1022.26 170.28C1022.26 119.608 1047.22 94.2715 1097.12 94.2715C1147.02 94.2715 1171.98 119.608 1171.98 170.28C1171.98 220.857 1147.02 246.145 1097.12 246.145C1047.41 246.145 1022.45 220.857 1022.26 170.28Z" fill="#3B3B3B"/>
<path d="M1238.92 40V245.858H1200.77V40H1238.92Z" fill="#3B3B3B"/>
<path d="M1267.85 198.784C1267.85 168.745 1289.73 153.725 1333.5 153.725C1343.77 153.725 1354.03 154.685 1364.3 156.605V145.232C1364.3 131.7 1354.56 124.934 1335.08 124.934C1318.57 124.934 1300.24 127.333 1280.09 132.132V101.901C1300.24 97.1027 1318.57 94.7034 1335.08 94.7034C1379.99 94.7034 1402.45 111.306 1402.45 144.512V245.858H1380.28L1366.75 232.326C1353.6 241.347 1339.11 245.858 1323.28 245.858C1286.33 245.858 1267.85 230.166 1267.85 198.784ZM1364.3 182.517C1354.71 180.597 1344.44 179.638 1333.5 179.638C1315.17 179.638 1306 185.876 1306 198.352C1306 211.788 1313.68 218.506 1329.03 218.506C1341.7 218.506 1353.46 214.571 1364.3 206.701V182.517Z" fill="#3B3B3B"/>
<path d="M1436.42 70.2308H1464.64L1470.4 94.7034H1508.4V124.934H1474.57V194.465C1474.57 208.573 1480.67 215.627 1492.86 215.627H1508.4V245.858H1474.43C1449.09 245.858 1436.42 232.278 1436.42 205.118V70.2308Z" fill="#3B3B3B"/>
<path d="M1565.41 169.705C1565.41 201.279 1577.65 217.066 1602.12 217.066C1626.59 217.066 1638.83 201.279 1638.83 169.705C1638.83 138.898 1626.59 123.495 1602.12 123.495C1577.65 123.495 1565.41 138.898 1565.41 169.705ZM1527.26 170.28C1527.26 119.608 1552.21 94.2715 1602.12 94.2715C1652.02 94.2715 1676.98 119.608 1676.98 170.28C1676.98 220.857 1652.02 246.145 1602.12 246.145C1552.41 246.145 1527.45 220.857 1527.26 170.28Z" fill="#3B3B3B"/>
<path d="M1705.77 245.858V94.7034H1735.28L1740.03 113.994C1753.27 101.133 1767.28 94.7034 1782.06 94.7034V125.51C1767.86 125.51 1755.14 131.412 1743.92 143.217V245.858H1705.77Z" fill="#3B3B3B"/>
<defs>
<linearGradient id="paint0_linear" x1="173.5" y1="0" x2="173.5" y2="340" gradientUnits="userSpaceOnUse">
<stop stop-color="#FF6B00"/>
<stop offset="1" stop-color="#C5005E"/>
</linearGradient>
<linearGradient id="paint1_linear" x1="173.5" y1="0" x2="173.5" y2="340" gradientUnits="userSpaceOnUse">
<stop stop-color="#FF6B00"/>
<stop offset="1" stop-color="#C5005E"/>
</linearGradient>
</defs>
</svg>
