<svg width="596" height="124" viewBox="0 0 596 124" fill="none" xmlns="http://www.w3.org/2000/svg">
<path fill-rule="evenodd" clip-rule="evenodd" d="M56.771 106.722C56.7769 106.712 56.7769 106.699 56.771 106.689V106.689C56.7651 106.679 56.7651 106.667 56.771 106.657L67.1897 88.8539C68.0718 87.3467 69.6871 86.4205 71.4335 86.4205H71.9218C74.3677 86.4205 76.3505 88.4033 76.3505 90.8492V90.8492C76.3505 93.2951 78.3333 95.2779 80.7792 95.2779H81.9132C84.6747 95.2779 86.9132 93.0393 86.9132 90.2779L86.9133 86.4205V81C86.9133 78.2386 84.6747 76 81.9133 76H76.3505V76C75.6249 76 75.1732 75.2123 75.5397 74.5861L86.6946 55.5255C88.6453 52.1922 86.2414 48 82.3793 48L25.3261 48C22.5646 48 20.3261 45.7614 20.3261 43V43C20.3261 40.2386 22.5646 38 25.3261 38L94.0839 38C95.8597 38 97.5023 37.0581 98.3993 35.5255L100.74 31.5255C102.691 28.1922 100.287 24 96.4249 24L5.00756 24C1.14545 24 -1.25849 28.1922 0.692227 31.5255L18.8344 62.5255C19.7314 64.0581 21.3739 65 23.1497 65L48.409 65C49.7897 65 50.909 66.1193 50.909 67.5V67.5C50.909 68.8807 49.7897 70 48.409 70L27.5685 70C25.6374 70 24.4354 72.0961 25.4108 73.7627V73.7627C25.8593 74.529 26.6806 75 27.5685 75L42.9574 75C44.3382 75 45.4574 76.1193 45.4574 77.5V77.5C45.4574 78.8807 44.3382 80 42.9574 80L33.4208 80C31.4897 80 30.2878 82.0961 31.2631 83.7627V83.7627C31.7116 84.529 32.5329 85 33.4208 85H37.9574C39.3382 85 40.4574 86.1193 40.4574 87.5V87.5C40.4574 88.8807 39.3382 90 37.9574 90H34.9134H30.3177C28.5419 90 26.8993 90.9419 26.0024 92.4745L19.1519 104.18C18.239 105.74 18.239 107.671 19.1519 109.231L26.0024 120.937C26.8993 122.469 28.5419 123.411 30.3177 123.411H44.1367C45.9125 123.411 47.5551 122.469 48.452 120.937L56.771 106.722ZM31.7367 102.475C32.6336 100.942 34.2762 100 36.052 100H37.8985C39.6744 100 41.3169 100.942 42.2139 102.475L43.464 104.611C44.3769 106.171 44.3769 108.102 43.464 109.662L42.7178 110.937C41.8208 112.469 40.1782 113.411 38.4024 113.411H36.052C34.2762 113.411 32.6336 112.469 31.7367 110.937L30.7385 109.231C29.8256 107.671 29.8256 105.74 30.7385 104.18L31.7367 102.475ZM85.0579 101.778C86.9238 103.619 86.9238 106.63 85.0579 108.471V108.471C83.2275 110.276 80.2859 110.276 78.4555 108.471V108.471C76.5897 106.63 76.5897 103.619 78.4555 101.778V101.778C80.2859 99.9723 83.2275 99.9723 85.0579 101.778V101.778Z" fill="white"/>
<path d="M160.043 77.6211C163.266 79.3789 166.732 80.2578 170.443 80.2578C178.158 80.2578 182.016 74.8379 182.016 63.998C182.016 54.7858 177.751 50.1797 169.223 50.1797C165.544 50.1797 162.484 50.4076 160.043 50.8633V77.6211ZM147.104 41.8301C153.907 40.4303 161.101 39.7305 168.686 39.7305C186.101 39.7305 194.809 47.8522 194.809 64.0957C194.809 82.0319 186.703 91 170.492 91C167.042 91 163.559 90.1862 160.043 88.5586V109.555H147.104V41.8301ZM226.254 39.7305C241.814 39.7305 249.594 47.6732 249.594 63.5586C249.594 65.6745 249.447 67.7904 249.154 69.9062H215.121C215.121 77.1328 220.427 80.7461 231.039 80.7461C236.215 80.7461 241.391 80.2578 246.566 79.2812V89.5352C242.042 90.5117 236.54 91 230.062 91C211.475 91 202.182 82.2598 202.182 64.7793C202.182 48.0801 210.206 39.7305 226.254 39.7305ZM215.121 60.9219H236.996V60.5312C236.996 53.4349 233.415 49.8867 226.254 49.8867C219.418 49.8867 215.707 53.5651 215.121 60.9219ZM259.311 91V39.7305H269.32L270.932 46.2734C275.424 41.9115 280.176 39.7305 285.189 39.7305V50.1797C280.372 50.1797 276.059 52.1816 272.25 56.1855V91H259.311ZM330.355 89.5352C326.124 90.5117 321.729 91 317.172 91C298.943 91 289.828 82.1296 289.828 64.3887C289.828 47.9499 298.943 39.7305 317.172 39.7305C321.729 39.7305 326.124 40.2188 330.355 41.1953V51.4492C326.124 50.4727 322.055 49.9844 318.148 49.9844C307.895 49.9844 302.768 54.7858 302.768 64.3887C302.768 75.2936 307.895 80.7461 318.148 80.7461C322.055 80.7461 326.124 80.2578 330.355 79.2812V89.5352ZM349.398 65.1699C349.398 75.8796 353.549 81.2344 361.85 81.2344C370.15 81.2344 374.301 75.8796 374.301 65.1699C374.301 54.7207 370.15 49.4961 361.85 49.4961C353.549 49.4961 349.398 54.7207 349.398 65.1699ZM336.459 65.3652C336.459 48.1777 344.923 39.584 361.85 39.584C378.777 39.584 387.24 48.1777 387.24 65.3652C387.24 82.5202 378.777 91.0977 361.85 91.0977C344.988 91.0977 336.524 82.5202 336.459 65.3652ZM409.945 21.1758V91H397.006V21.1758H409.945ZM419.76 75.0332C419.76 64.8444 427.182 59.75 442.025 59.75C445.508 59.75 448.992 60.0755 452.475 60.7266V56.8691C452.475 52.2793 449.171 49.9844 442.562 49.9844C436.964 49.9844 430.746 50.7982 423.91 52.4258V42.1719C430.746 40.5443 436.964 39.7305 442.562 39.7305C457.797 39.7305 465.414 45.362 465.414 56.625V91H457.895L453.305 86.4102C448.845 89.4701 443.93 91 438.559 91C426.026 91 419.76 85.6777 419.76 75.0332ZM452.475 69.5156C449.219 68.8646 445.736 68.5391 442.025 68.5391C435.808 68.5391 432.699 70.6549 432.699 74.8867C432.699 79.444 435.303 81.7227 440.512 81.7227C444.809 81.7227 448.796 80.388 452.475 77.7188V69.5156ZM476.938 31.4297H486.508L488.461 39.7305H501.352V49.9844H489.877V73.5684C489.877 78.3535 491.944 80.7461 496.078 80.7461H501.352V91H489.828C481.234 91 476.938 86.3939 476.938 77.1816V31.4297ZM520.688 65.1699C520.688 75.8796 524.838 81.2344 533.139 81.2344C541.439 81.2344 545.59 75.8796 545.59 65.1699C545.59 54.7207 541.439 49.4961 533.139 49.4961C524.838 49.4961 520.688 54.7207 520.688 65.1699ZM507.748 65.3652C507.748 48.1777 516.212 39.584 533.139 39.584C550.066 39.584 558.529 48.1777 558.529 65.3652C558.529 82.5202 550.066 91.0977 533.139 91.0977C516.277 91.0977 507.813 82.5202 507.748 65.3652ZM568.295 91V39.7305H578.305L579.916 46.2734C584.408 41.9115 589.161 39.7305 594.174 39.7305V50.1797C589.356 50.1797 585.043 52.1816 581.234 56.1855V91H568.295Z" fill="white"/>
</svg>
